<?xml version="1.0" encoding="utf-8"?>
<!-- Generator: Adobe Illustrator 16.0.0, SVG Export Plug-In . SVG Version: 6.00 Build 0)  -->
<!DOCTYPE svg PUBLIC "-//W3C//DTD SVG 1.1//EN" "http://www.w3.org/Graphics/SVG/1.1/DTD/svg11.dtd">
<svg version="1.1" id="Layer_1" xmlns="http://www.w3.org/2000/svg" xmlns:xlink="http://www.w3.org/1999/xlink" x="0px" y="0px"
	 width="2040.97px" height="1273.347px" viewBox="113.386 7271.363 2040.97 1273.347"
	 enable-background="new 113.386 7271.363 2040.97 1273.347" xml:space="preserve">
<g>
	<path d="M2054.985,7271.363H212.735c-54.788,0-99.349,44.561-99.349,99.326v36.125v180.623v857.924
		c0,54.766,44.561,99.349,99.349,99.349h1842.272c54.766,0,99.349-44.561,99.349-99.349V7370.689
		C2154.334,7315.924,2109.773,7271.363,2054.985,7271.363z M212.735,7289.414h1842.272c44.811,0,81.275,36.465,81.275,81.275v27.099
		H131.437v-27.099C131.437,7325.879,167.902,7289.414,212.735,7289.414z M131.437,7415.84h2000.311v162.55H131.437V7415.84z
		 M2054.985,8526.637H212.735c-44.811,0-81.275-36.465-81.275-81.275v-848.898h2004.823v848.898
		C2136.283,8490.172,2099.818,8526.637,2054.985,8526.637z"/>
	<path d="M158.536,7479.063h316.075c4.989,0,9.025-4.036,9.025-9.025s-4.036-9.025-9.025-9.025H158.536
		c-4.988,0-9.025,4.036-9.025,9.025S153.548,7479.063,158.536,7479.063z"/>
	<path d="M519.761,7479.063h167.062c4.989,0,9.026-4.036,9.026-9.025s-4.037-9.025-9.026-9.025H519.761
		c-4.988,0-9.025,4.036-9.025,9.025S514.773,7479.063,519.761,7479.063z"/>
	<path d="M1111.273,7470.038c0-4.989-4.036-9.025-9.025-9.025h-370.25c-4.989,0-9.025,4.036-9.025,9.025s4.036,9.025,9.025,9.025
		h370.25C1107.237,7479.063,1111.273,7475.027,1111.273,7470.038z"/>
	<path d="M1133.86,7479.063h36.125c4.989,0,9.025-4.036,9.025-9.025s-4.037-9.025-9.025-9.025h-36.125
		c-4.989,0-9.025,4.036-9.025,9.025S1128.871,7479.063,1133.86,7479.063z"/>
	<path d="M1201.596,7479.063h189.649c4.989,0,9.025-4.036,9.025-9.025s-4.036-9.025-9.025-9.025h-189.649
		c-4.988,0-9.025,4.036-9.025,9.025C1192.549,7475.027,1196.608,7479.063,1201.596,7479.063z"/>
	<path d="M1418.323,7479.063h108.374c4.989,0,9.025-4.036,9.025-9.025s-4.036-9.025-9.025-9.025h-108.374
		c-4.989,0-9.026,4.036-9.026,9.025S1413.334,7479.063,1418.323,7479.063z"/>
	<path d="M1653.123,7479.063h230.287c4.988,0,9.025-4.036,9.025-9.025s-4.037-9.025-9.025-9.025h-230.287
		c-4.989,0-9.025,4.036-9.025,9.025S1648.134,7479.063,1653.123,7479.063z"/>
	<path d="M1621.51,7470.038c0-4.989-4.036-9.025-9.025-9.025h-54.176c-4.989,0-9.026,4.036-9.026,9.025s4.037,9.025,9.026,9.025
		h54.176C1617.474,7479.063,1621.51,7475.027,1621.51,7470.038z"/>
	<path d="M2118.209,7461.013h-185.137c-4.988,0-9.025,4.036-9.025,9.025s4.037,9.025,9.025,9.025h185.137
		c4.989,0,9.025-4.036,9.025-9.025S2123.198,7461.013,2118.209,7461.013z"/>
	<path d="M2118.209,7528.727h-316.074c-4.989,0-9.025,4.037-9.025,9.025c0,4.989,4.036,9.025,9.025,9.025h316.074
		c4.989,0,9.025-4.036,9.025-9.025C2127.234,7532.786,2123.198,7528.727,2118.209,7528.727z"/>
	<path d="M1756.984,7528.727h-167.062c-4.989,0-9.025,4.037-9.025,9.025c0,4.989,4.036,9.025,9.025,9.025h167.062
		c4.988,0,9.025-4.036,9.025-9.025C1766.01,7532.786,1761.972,7528.727,1756.984,7528.727z"/>
	<path d="M1544.771,7528.727h-370.273c-4.989,0-9.025,4.037-9.025,9.025c0,4.989,4.036,9.025,9.025,9.025h370.273
		c4.988,0,9.025-4.036,9.025-9.025C1553.797,7532.786,1549.737,7528.727,1544.771,7528.727z"/>
	<path d="M1142.885,7528.727h-36.125c-4.988,0-9.025,4.037-9.025,9.025c0,4.989,4.037,9.025,9.025,9.025h36.125
		c4.989,0,9.025-4.036,9.025-9.025C1151.911,7532.786,1147.875,7528.727,1142.885,7528.727z"/>
	<path d="M1075.172,7528.727H935.185c-4.989,0-9.025,4.037-9.025,9.025c0,4.989,4.036,9.025,9.025,9.025h139.986
		c4.989,0,9.025-4.036,9.025-9.025C1084.197,7532.786,1080.137,7528.727,1075.172,7528.727z"/>
	<path d="M890.035,7528.727H750.049c-4.989,0-9.025,4.037-9.025,9.025c0,4.989,4.036,9.025,9.025,9.025h139.986
		c4.989,0,9.025-4.036,9.025-9.025C899.06,7532.786,895.024,7528.727,890.035,7528.727z"/>
	<path d="M623.623,7528.727H393.336c-4.988,0-9.025,4.037-9.025,9.025c0,4.989,4.037,9.025,9.025,9.025h230.287
		c4.989,0,9.025-4.036,9.025-9.025C632.648,7532.786,628.612,7528.727,623.623,7528.727z"/>
	<path d="M718.436,7528.727H664.26c-4.989,0-9.025,4.037-9.025,9.025c0,4.989,4.036,9.025,9.025,9.025h54.176
		c4.989,0,9.025-4.036,9.025-9.025C727.485,7532.786,723.426,7528.727,718.436,7528.727z"/>
	<path d="M343.674,7528.727H158.536c-4.988,0-9.025,4.037-9.025,9.025c0,4.989,4.037,9.025,9.025,9.025h185.138
		c4.988,0,9.025-4.036,9.025-9.025C352.699,7532.786,348.662,7528.727,343.674,7528.727z"/>
	<path d="M1919.535,7975.762h-302.537c-17.416,0-31.612,14.174-31.612,31.612v307.05c0,17.438,14.174,31.611,31.612,31.611h302.536
		c17.416,0,31.612-14.173,31.612-31.611v-307.05C1951.146,7989.936,1936.951,7975.762,1919.535,7975.762z M1933.072,8314.4
		c0,7.461-6.077,13.539-13.538,13.539h-302.536c-7.461,0-13.538-6.078-13.538-13.539v-307.049c0-7.461,6.077-13.538,13.538-13.538
		h302.536c7.461,0,13.538,6.077,13.538,13.538V8314.4z"/>
	<path d="M1242.234,8156.363H312.061c-4.989,0-9.025,4.037-9.025,9.025c0,4.989,4.036,9.025,9.025,9.025h930.173
		c4.989,0,9.025-4.036,9.025-9.025C1251.26,8160.423,1247.223,8156.363,1242.234,8156.363z"/>
	<path d="M1242.234,8038.964H312.061c-4.989,0-9.025,4.036-9.025,9.025c0,4.988,4.036,9.025,9.025,9.025h930.173
		c4.989,0,9.025-4.037,9.025-9.025C1251.26,8043.022,1247.223,8038.964,1242.234,8038.964z"/>
	<path d="M768.123,8278.276H312.061c-4.989,0-9.025,4.036-9.025,9.025s4.036,9.025,9.025,9.025h456.062
		c4.988,0,9.025-4.036,9.025-9.025C777.148,8282.335,773.111,8278.276,768.123,8278.276z"/>
</g>
</svg>
