<?xml version="1.0" encoding="utf-8"?>
<!-- Generator: Adobe Illustrator 16.0.0, SVG Export Plug-In . SVG Version: 6.00 Build 0)  -->
<!DOCTYPE svg PUBLIC "-//W3C//DTD SVG 1.1//EN" "http://www.w3.org/Graphics/SVG/1.1/DTD/svg11.dtd">
<svg version="1.1" id="Layer_1" xmlns="http://www.w3.org/2000/svg" xmlns:xlink="http://www.w3.org/1999/xlink" x="0px" y="0px"
	 width="2063.625px" height="1330.947px" viewBox="102.048 7054.048 2063.625 1330.947"
	 enable-background="new 102.048 7054.048 2063.625 1330.947" xml:space="preserve">
<g>
	<g>
		<path d="M544.594,8384.995c-159.354,0-301.698-23.925-435.131-73.111c-4.444-1.633-7.415-5.874-7.415-10.636V7137.795
			c0-3.72,1.814-7.189,4.853-9.298c3.062-2.132,6.984-2.608,10.409-1.338c130.87,48.257,270.675,71.705,427.397,71.705
			c195.341,0,394.492-36.715,587.112-72.228c193.618-35.693,393.812-72.589,591.218-72.589c159.443,0,301.811,23.901,435.221,73.111
			c4.444,1.655,7.415,5.896,7.415,10.636v1163.453c0,3.719-1.814,7.188-4.853,9.298c-3.062,2.132-6.984,2.607-10.409,1.338
			c-130.87-48.257-270.697-71.706-427.397-71.706c-195.363,0-394.537,36.715-587.18,72.228
			c-193.573,35.693-393.768,72.589-591.172,72.589C544.661,8384.995,544.638,8384.995,544.594,8384.995z M124.724,8293.311
			c128.738,46.421,266.186,69.007,419.869,69.007c0.045,0,0.067,0,0.09,0c195.342,0,394.493-36.714,587.09-72.227
			c193.618-35.694,393.836-72.59,591.264-72.59c153.388,0,290.947,22.133,419.98,67.601v-1139.37
			c-128.738-46.42-266.207-69.007-419.981-69.007c-195.341,0-394.492,36.715-587.112,72.227
			c-193.618,35.694-393.812,72.59-591.217,72.59c-153.389,0-290.949-22.133-419.982-67.601V8293.311L124.724,8293.311z"/>
	</g>
	<g>
		<path d="M571.715,8213.986c-36.396,0-70.843-2.2-102.364-6.554c-3.13-0.431-5.919-2.132-7.733-4.717
			c-1.813-2.562-2.449-5.783-1.813-8.867c2.358-11.226,3.56-22.563,3.56-33.767c0-89.529-72.839-162.368-162.368-162.368
			c-6.259,0-11.339-5.08-11.339-11.339v-384.016c0-6.259,5.08-11.339,11.339-11.339c42.089,0,92.341-26.827,125.087-66.739
			c27.19-33.153,38.348-70.412,31.477-104.882c-0.726-3.605,0.362-7.324,2.857-10c2.517-2.653,6.031-3.991,9.842-3.447
			c34.311,4.785,72.271,7.212,112.818,7.212c0.023,0,0.023,0,0.046,0c159.67,0,348.345-37.259,530.828-73.248
			c183.571-36.238,373.38-73.701,535.272-73.701c41.635,0,80.662,2.495,116.016,7.438c3.176,0.454,6.033,2.223,7.824,4.876
			s2.381,5.964,1.609,9.07c-3.265,13.244-4.92,26.374-4.92,39.005c0,89.53,72.839,162.369,162.346,162.369
			c6.259,0,11.338,5.079,11.338,11.339v407.645c0,6.259-5.079,11.339-11.338,11.339c-72.227,0-136.403,48.574-156.088,118.103
			c-1.52,5.442-6.417,8.98-12.518,8.142c-31.136-4.399-65.333-6.622-101.571-6.622c-162.437,0-355.896,44.402-543.005,87.33
			C930.808,8169.357,736.329,8213.986,571.715,8213.986z M484.158,8186.456c27.259,3.22,56.648,4.83,87.557,4.83
			c162.052,0,355.262-44.334,542.099-87.217c188.335-43.223,383.086-87.896,548.085-87.896c33.653,0,65.65,1.882,95.199,5.579
			c24.151-70.617,89.28-120.235,163.639-124.839v-385.647c-96.786-5.874-173.685-86.469-173.685-184.706
			c0-10.478,0.998-21.226,2.948-32.065c-31.091-3.742-64.925-5.646-100.801-5.646c-159.67,0-348.367,37.235-530.873,73.247
			c-183.549,36.238-373.334,73.7-535.227,73.7c-0.023,0-0.046,0-0.046,0c-35.875,0-69.823-1.859-101.163-5.533
			c2.699,36.67-10.59,74.608-38.278,108.375c-33.971,41.431-85.425,70.299-131.278,74.494v362.246
			c96.786,5.873,173.707,86.468,173.707,184.705C486.063,8168.858,485.406,8177.68,484.158,8186.456z"/>
	</g>
	<g>
		<path d="M1142.002,8088.173c-67.556,0-224.687-30.977-224.687-317.844c0-225.274,100.778-408.552,224.687-408.552
			s224.686,183.277,224.686,408.552C1366.71,8057.219,1209.579,8088.173,1142.002,8088.173z M1142.002,7384.477
			c-111.391,0-202.009,173.096-202.009,385.876c0,187.562,73.633,295.166,202.009,295.166
			c128.375,0,202.008-107.581,202.008-295.166C1344.033,7557.572,1253.391,7384.477,1142.002,7384.477z"/>
	</g>
</g>
</svg>
