<?xml version="1.0" encoding="utf-8"?>
<!-- Generator: Adobe Illustrator 16.0.0, SVG Export Plug-In . SVG Version: 6.00 Build 0)  -->
<!DOCTYPE svg PUBLIC "-//W3C//DTD SVG 1.1//EN" "http://www.w3.org/Graphics/SVG/1.1/DTD/svg11.dtd">
<svg version="1.1" id="Layer_1" xmlns="http://www.w3.org/2000/svg" xmlns:xlink="http://www.w3.org/1999/xlink" x="0px" y="0px"
	 width="958.93px" height="2187.374px" viewBox="610.787 6819.497 958.93 2187.374"
	 enable-background="new 610.787 6819.497 958.93 2187.374" xml:space="preserve">
<g>
	<linearGradient id="SVGID_1_" gradientUnits="userSpaceOnUse" x1="610.8337" y1="7583.1641" x2="1548.5808" y2="7583.1641">
		<stop  offset="0" style="stop-color:#57BFEB"/>
		<stop  offset="1" style="stop-color:#3B86A5"/>
	</linearGradient>
	<path fill="url(#SVGID_1_)" d="M1483.543,7580.385c14.173-17.598,23.018-39.662,23.018-63.994
		c0-56.762-46.375-102.933-103.658-102.933c-57.146,0-103.68,46.171-103.68,102.933c0,5.623,0.793,11.021,1.655,16.396
		c-0.952-5.329-1.655-10.749-1.655-16.396c0-2.382,0.521-4.559,0.657-6.872c-156.337-13.447-393.54-32.7-483.183-34.968
		c-7.711-49.142-50.502-86.785-102.343-86.785c-57.214,0-103.521,46.012-103.521,102.932c0,56.761,46.307,102.932,103.521,102.932
		c10.069,0,19.344-2.54,28.528-5.216c-17.484,18.368-28.301,43.019-28.301,70.299c0,56.988,46.397,103,103.521,103
		c57.282,0,103.589-46.012,103.589-103c0-5.76-0.59-11.588-1.564-17.189l421.796,29.911c-0.068,1.452-0.453,2.835-0.453,4.286
		c0,56.829,46.307,102.842,103.521,102.842c57.282,0,103.59-46.013,103.59-102.842
		C1548.603,7632.406,1521.663,7595.557,1483.543,7580.385z M908.926,7609.23c-17.553-31.816-51.614-53.473-90.822-53.473
		c-10.228,0-19.956,1.928-29.367,4.717c14.264-15.012,24.968-33.472,28.074-54.766c76.581,2.178,297.729,19.503,485.746,35.559
		c-0.023-0.092-0.046-0.182-0.068-0.295c8.027,32.359,31.295,58.643,61.932,70.843c-6.917,8.572-12.473,18.165-16.351,28.664
		L908.926,7609.23z"/>
	<linearGradient id="SVGID_2_" gradientUnits="userSpaceOnUse" x1="610.7869" y1="8553.2363" x2="1548.5349" y2="8553.2363">
		<stop  offset="0" style="stop-color:#57BFEB"/>
		<stop  offset="1" style="stop-color:#3B86A5"/>
	</linearGradient>
	<path fill="url(#SVGID_2_)" d="M1445.013,8800.986c-53.178,0-96.4,39.934-102.342,91.184
		c-154.182,5.352-327.754,10.568-448.985,12.949c24.718-14.65,42.27-39.367,48.098-68.439c9.933,3.152,19.865,6.258,30.841,6.258
		c46.466,0,85.675-30.479,98.805-72.295c31.748,2.881,68.576,6.281,103.453,9.547c9.071,47.578,50.865,83.611,101.572,83.611
		c57.191,0,103.521-46.08,103.521-102.908c0-56.852-46.329-103.023-103.521-103.023c-53.11,0-96.084,39.686-102.298,90.641
		c-32.156-3.016-67.033-6.191-98.033-8.934c0-0.295-0.159-0.455-0.159-0.658c-3.424,0.385-6.871,1.043-10.454,1.043
		c-7.075,0-14.014-0.703-20.681-2.086c6.689,1.359,13.605,2.086,20.681,2.086c57.351,0,103.816-46.08,103.816-103
		c0-13.787-2.835-26.941-7.823-38.982c16.373,35.264,52.066,59.891,93.656,59.891c57.352,0,103.727-46.08,103.727-102.909
		c0-56.852-46.375-102.932-103.727-102.932c-40.569,0-75.515,23.38-92.545,57.192c-45.264-8.822-96.288-18.664-137.81-25.988
		c0.067,1.338,0.386,2.517,0.386,3.877c0,5.443-0.658,10.727-1.61,15.874c0.816-5.192,1.61-10.454,1.61-15.874
		c0-46.08-30.569-84.586-72.477-97.783c0.091,0.022,0.158,0.045,0.249,0.067c117.944-4.309,254.416-8.957,348.073-12.087
		c9.184,47.6,51.182,83.656,101.82,83.656c57.078,0,103.657-46.171,103.657-103.022c0-56.829-46.602-102.909-103.657-102.909
		c-53.201,0-96.945,39.73-102.932,90.891c-133.705,4.49-353.334,11.951-483.978,17.348c-6.327-30.591-26.577-55.809-53.632-69.913
		c33.019-17.258,55.764-51.251,55.764-90.822c0-56.942-46.397-102.933-103.748-102.933c-57.215,0-103.521,45.99-103.521,102.933
		c0,39.571,22.7,73.564,55.649,90.822c-32.949,17.212-55.649,51.183-55.649,90.754c0,56.852,46.307,103,103.521,103
		c53.723,0,97.308-40.638,102.683-92.455c19.774-0.749,41.34-1.655,64.63-2.54c0.771-0.317,1.633-0.453,2.426-0.726
		c-38.573,14.967-65.99,52.066-65.99,95.743c0,56.761,46.058,102.932,103.295,102.932c47.622,0,76.399-32.156,99.076-75.605
		c0,0.022,0,0.067,0,0.09c45.354,6.804,85.72,15.829,132.344,24.877c-0.748,5.171-1.201,10.318-1.201,15.557
		c0,13.811,2.902,26.941,7.869,38.914c-16.51-35.24-52.203-59.845-93.975-59.845c-57.215,0-103.363,46.171-103.363,102.933
		c0,0.701,0.228,1.359,0.228,2.062c-45.037,4.648-79.982,37.168-89.167,80.414c-10.228-3.311-20.932-5.602-32.201-5.602
		c-52.884,0-96.515,39.277-102.933,90.006c-7.619-1.791-15.533-2.834-23.743-2.834c-57.214,0-103.521,46.08-103.521,102.932
		c0,56.92,46.308,102.908,103.521,102.908c45.423,0,83.861-28.891,97.921-69.166c11.724-0.066,25.013-0.158,40.229-0.453
		c59.709-0.816,142.594-2.926,246.206-5.828c88.939-2.584,177.856-5.533,244.732-7.869c9.206,47.486,51.069,83.295,101.548,83.295
		c57.283,0,103.59-45.99,103.59-102.91C1548.603,8847.064,1502.297,8800.986,1445.013,8800.986z M938.633,8385.789
		c-5.533-0.907-11.112-1.679-16.918-1.679C927.498,8384.11,933.122,8384.768,938.633,8385.789z M1030.52,8733.475
		c-1.542-0.543-3.266-0.838-4.785-1.473C1027.277,8732.637,1028.978,8732.932,1030.52,8733.475z"/>
	<linearGradient id="SVGID_3_" gradientUnits="userSpaceOnUse" x1="988.4763" y1="7225.2949" x2="1200.9841" y2="7225.2949">
		<stop  offset="0" style="stop-color:#57BFEB"/>
		<stop  offset="1" style="stop-color:#3B86A5"/>
	</linearGradient>
	<path fill="url(#SVGID_3_)" d="M1153.794,7309.461c28.347-18.392,47.19-50.026,47.19-86.105
		c0-56.92-46.533-102.932-103.748-102.932c-23.153,0-44.356,7.846-61.637,20.636c-28.323,18.392-47.123,50.049-47.123,86.105
		c0,56.829,46.398,103,103.681,103C1115.355,7330.188,1136.536,7322.296,1153.794,7309.461z"/>
	<linearGradient id="SVGID_4_" gradientUnits="userSpaceOnUse" x1="677.6853" y1="7015.3379" x2="1569.7166" y2="7015.3379">
		<stop  offset="0" style="stop-color:#57BFEB"/>
		<stop  offset="1" style="stop-color:#3B86A5"/>
	</linearGradient>
	<path fill="url(#SVGID_4_)" d="M781.116,7025.497c57.146,0,103.681-46.171,103.681-103c0,3.81-0.748,7.393-1.134,11.135
		l481.119,23.606c-1.497,7.03-2.336,14.332-2.336,21.793c0,12.994,2.676,25.24,7.075,36.76
		c-13.447-6.418-27.983-10.522-43.835-10.522c-49.821,0-91.435,34.878-101.458,81.411c-66.852-6.645-168.582-16.509-207.405-19.502
		c0.113,0.363,0.159,0.726,0.272,1.065c-12.654-42.679-51.84-73.973-98.94-73.973c-57.147,0-103.521,46.012-103.521,102.932
		c0,56.852,46.397,102.864,103.521,102.864c57.282,0,103.589-46.013,103.589-102.864c0-5.715-0.793-11.226-1.678-16.69
		c0.998,5.42,1.678,10.953,1.678,16.69c0,0.59-0.136,1.202-0.136,1.882c38.098,3.062,123.522,11.339,200.829,18.959
		c5.012,52.202,49.391,93.135,103.249,93.135c57.147,0,103.386-46.171,103.386-102.932c0-12.994-3.084-25.104-7.393-36.602
		c13.516,6.418,28.459,10.318,44.424,10.318c57.306,0,103.613-46.012,103.613-102.932c0-56.829-46.308-102.932-103.613-102.932
		c-37.87,0-70.865,20.16-88.939,50.275l-494.431-24.265c-9.548-47.078-51.5-82.613-101.595-82.613
		c-57.282,0-103.453,46.148-103.453,103C677.685,6979.326,723.834,7025.497,781.116,7025.497z"/>
	<linearGradient id="SVGID_5_" gradientUnits="userSpaceOnUse" x1="858.4451" y1="7879.9512" x2="1397.5056" y2="7879.9512">
		<stop  offset="0" style="stop-color:#57BFEB"/>
		<stop  offset="1" style="stop-color:#3B86A5"/>
	</linearGradient>
	<path fill="url(#SVGID_5_)" d="M1397.506,7834.438c0-56.919-46.307-102.932-103.454-102.932
		c-50.706,0-92.659,36.057-101.685,83.793l-129.94-33.676c-11.338-44.584-51.84-77.692-100.232-77.692
		c-57.215,0-103.749,46.103-103.749,103c0,56.829,46.534,102.863,103.749,102.863c54.516,0,99.031-41.749,103.158-94.949
		l126.425,32.7c1.475,11.361,4.672,22.088,9.57,31.976c-18.686-18.21-44.198-29.413-72.34-29.413
		c-57.306,0-103.748,46.013-103.748,102.932c0,56.853,46.442,102.933,103.748,102.933c57.146,0,103.589-46.08,103.589-102.933
		c0-16.281-4.195-31.453-10.907-45.104l0,0c18.663,18.142,44.152,29.436,72.385,29.436
		C1351.199,7937.369,1397.506,7891.199,1397.506,7834.438z"/>
	<linearGradient id="SVGID_6_" gradientUnits="userSpaceOnUse" x1="781.2068" y1="7342.6367" x2="1371.6072" y2="7342.6367">
		<stop  offset="0" style="stop-color:#57BFEB"/>
		<stop  offset="1" style="stop-color:#3B86A5"/>
	</linearGradient>
	<path fill="url(#SVGID_6_)" d="M884.66,7227.188c-57.078,0-103.453,46.171-103.453,103s46.375,102.932,103.453,102.932
		c45.037,0,83.203-28.459,97.626-68.189c47.35,5.057,116.561,12.767,187.495,20.795c13.13,41.771,51.84,72.362,98.373,72.362
		c57.215,0,103.453-46.171,103.453-102.932c0-56.92-46.216-103-103.453-103c-56.806,0-102.5,45.264-103.385,101.413
		c-61.818-7.03-128.376-14.469-176.429-19.548c0-1.339,0.159-2.54,0.159-3.81C988.476,7273.336,942.011,7227.188,884.66,7227.188z"
		/>
	<linearGradient id="SVGID_7_" gradientUnits="userSpaceOnUse" x1="816.4021" y1="8101.3369" x2="1483.7468" y2="8101.3369">
		<stop  offset="0" style="stop-color:#57BFEB"/>
		<stop  offset="1" style="stop-color:#3B86A5"/>
	</linearGradient>
	<path fill="url(#SVGID_7_)" d="M1286.568,8159.356c16.577,34.719,52.135,58.87,93.453,58.87
		c57.282,0,103.726-46.08,103.726-102.932c0-56.92-46.443-102.932-103.726-102.932c-57.215,0-103.521,46.012-103.521,102.932
		c0,4.626,0.453,9.116,1.043,13.447c-86.06,10.908-193.663,24.492-291.72,37.214c23.856-18.868,39.413-47.646,39.413-80.232
		c0-56.92-46.329-103-103.521-103c-57.214,0-103.589,46.08-103.589,103c0,42.021,25.466,78.078,61.841,94.042
		c-22.813,3.062-44.085,5.896-63.247,8.596c0.59,4.626,1.406,9.252,1.406,14.195c0,5.964-0.816,11.656-1.724,17.394
		C925.661,8205.006,1117.396,8180.583,1286.568,8159.356z M940.696,8186.729c-6.146,1.179-12.495,1.904-19.004,1.904
		C928.223,8188.633,934.527,8187.862,940.696,8186.729z M972.602,8174.822c-0.726,0.432-1.474,0.794-2.222,1.202
		C971.129,8175.616,971.854,8175.23,972.602,8174.822z M957.658,8181.875c-2.245,0.861-4.58,1.429-6.916,2.132
		C953.078,8183.35,955.413,8182.714,957.658,8181.875z"/>
</g>
</svg>
