<svg xmlns="http://www.w3.org/2000/svg" xmlns:xlink="http://www.w3.org/1999/xlink" version="1.1" x="0px" y="0px" viewBox="0 0 100 125" enable-background="new 0 0 100 100" xml:space="preserve"><g><path d="M33.066,33.218c0.349,0.094,0.708,0.142,1.067,0.142c1.839,0,3.458-1.242,3.938-3.019l1.297-4.802l0,0l0.138-0.51   l1.691-6.263c0.284-1.052,0.142-2.152-0.402-3.098c-0.543-0.945-1.422-1.622-2.474-1.906c-0.349-0.094-0.708-0.142-1.067-0.142   c-1.838,0-3.458,1.241-3.938,3.019l-1.297,4.802h0l-0.349,1.292l-1.48,5.48c-0.284,1.053-0.142,2.153,0.401,3.098   C31.135,32.256,32.014,32.934,33.066,33.218z M34.301,16.904c0.36-1.333,1.574-2.264,2.952-2.264c0.269,0,0.539,0.036,0.801,0.107   c0.789,0.213,1.448,0.721,1.855,1.43c0.408,0.708,0.515,1.534,0.301,2.323l-1.297,4.802l-5.91-1.596L34.301,16.904z M32.738,22.691   l5.91,1.596v0L32.738,22.691L32.738,22.691z M31.175,28.479l1.297-4.803l5.911,1.596l-1.297,4.803   c-0.43,1.593-2.143,2.592-3.754,2.157c-0.789-0.213-1.448-0.721-1.856-1.43C31.069,30.094,30.962,29.269,31.175,28.479z"/><path d="M23.348,31.794c-2.215,0.394-3.697,2.518-3.303,4.734l0.89,5.003l0.338,1.903h0.001l0.872,4.898   c0.347,1.951,2.035,3.367,4.013,3.367c0,0,0,0,0,0c0.237,0,0.478-0.021,0.719-0.064c1.074-0.19,2.008-0.788,2.632-1.682   s0.863-1.978,0.671-3.051l-1.135-6.379l-0.094-0.527l0,0l-0.872-4.897C27.692,32.913,25.605,31.396,23.348,31.794z M28.673,49.37   c-0.468,0.67-1.169,1.119-1.974,1.262c-0.182,0.032-0.362,0.048-0.541,0.048c-1.483,0-2.749-1.062-3.009-2.525l-0.872-4.898   l6.027-1.072l0.871,4.897C29.32,47.887,29.142,48.699,28.673,49.37z M21.921,41.248l-0.872-4.898   c-0.295-1.662,0.815-3.255,2.477-3.55c0.182-0.032,0.362-0.048,0.541-0.048c1.483,0,2.75,1.062,3.01,2.526l0.872,4.897   L21.921,41.248z"/><path d="M38.241,44.342l10.103-6.455c0.919-0.587,1.554-1.497,1.79-2.562c0.235-1.065,0.041-2.157-0.545-3.075   c-0.754-1.181-2.041-1.885-3.443-1.885c-0.778,0-1.537,0.222-2.194,0.643l-10.104,6.454c-1.896,1.212-2.454,3.741-1.242,5.638   c0.754,1.18,2.042,1.884,3.443,1.884C36.825,44.984,37.583,44.762,38.241,44.342z M44.5,31.868   c0.494-0.315,1.062-0.482,1.645-0.482c1.052,0,2.018,0.528,2.583,1.414c0.44,0.688,0.585,1.507,0.409,2.306   s-0.653,1.481-1.342,1.921l-5.625,3.594l-3.295-5.16L44.5,31.868z"/><path d="M44.796,48.047c-0.512-0.219-1.052-0.33-1.604-0.33c-1.637,0-3.111,0.972-3.755,2.476l-4.719,11.021   c-0.429,1.003-0.442,2.113-0.037,3.125c0.405,1.013,1.181,1.806,2.183,2.234c0.512,0.22,1.052,0.331,1.605,0.331   c1.635,0,3.108-0.973,3.753-2.477l4.72-11.021C47.826,51.339,46.864,48.935,44.796,48.047z M46.002,53.005l-2.628,6.137   l-5.627-2.41l2.627-6.136c0.483-1.128,1.588-1.857,2.817-1.857c0.414,0,0.819,0.083,1.203,0.247   C45.945,49.651,46.667,51.454,46.002,53.005z"/><path d="M29.312,58.075l-10.699-5.413c-0.577-0.292-1.196-0.44-1.838-0.44c-1.55,0-2.947,0.858-3.646,2.24   c-1.015,2.009-0.208,4.469,1.799,5.484l10.699,5.413c0.578,0.292,1.196,0.44,1.839,0.44c1.549,0,2.946-0.858,3.646-2.239   C32.126,61.552,31.319,59.091,29.312,58.075z M30.202,63.1c-0.525,1.036-1.573,1.68-2.735,1.68c-0.481,0-0.945-0.111-1.378-0.33   l-5.957-3.014l2.763-5.464l5.957,3.014C30.357,59.747,30.962,61.594,30.202,63.1z"/><path d="M23.895,27.907C23.895,27.907,23.895,27.907,23.895,27.907c1.804,0,3.372-1.16,3.901-2.885   c0.32-1.042,0.215-2.147-0.296-3.11c-0.511-0.963-1.367-1.669-2.409-1.989l-11.462-3.517c-0.39-0.12-0.794-0.181-1.199-0.181   c-1.804,0-3.371,1.16-3.9,2.885c-0.32,1.042-0.215,2.147,0.295,3.11s1.366,1.67,2.408,1.99l11.463,3.517   C23.086,27.846,23.49,27.907,23.895,27.907z M26.598,22.39c0.383,0.722,0.462,1.55,0.222,2.332   c-0.397,1.295-1.573,2.165-2.925,2.165h0c-0.303,0-0.606-0.046-0.899-0.136l-6.382-1.958l1.796-5.853l6.381,1.958   C25.573,21.138,26.215,21.668,26.598,22.39z"/><path d="M62.938,43.546l-4.677,18.776c4.853,0.652,9.522-2.434,10.733-7.296C70.208,50.164,67.53,45.246,62.938,43.546z"/><path d="M56.158,61.799l4.676-18.777c-4.853-0.652-9.522,2.436-10.734,7.298C48.889,55.181,51.563,60.098,56.158,61.799z"/><path d="M87.614,37.675L77.01,53.861c4.366,2.216,9.793,0.84,12.538-3.353C92.294,46.318,91.388,40.793,87.614,37.675z"/><path d="M73.259,39.839c-2.746,4.19-1.838,9.715,1.936,12.834l10.604-16.186C81.433,34.271,76.005,35.646,73.259,39.839z"/><path d="M75.183,59.101l10.921,15.975c3.713-3.194,4.51-8.737,1.682-12.873C84.958,58.066,79.503,56.799,75.183,59.101z"/><path d="M71.711,73.195c2.827,4.136,8.281,5.404,12.604,3.101L73.393,60.324C69.68,63.516,68.882,69.059,71.711,73.195z"/><path d="M76.188,26.634c-1.141-4.574-5.227-7.769-9.937-7.769c-0.454,0-0.913,0.031-1.364,0.091l-0.564,0.076l4.957,19.882   l0.534-0.198C74.713,36.902,77.453,31.708,76.188,26.634z M69.99,37.545l-4.396-17.636c4.477-0.32,8.524,2.641,9.604,6.972   C76.291,31.263,74.065,35.745,69.99,37.545z"/><path d="M66.237,39.359c0.454,0,0.913-0.031,1.364-0.091l0.564-0.076L63.21,19.311l-0.535,0.198   c-4.897,1.815-7.637,7.01-6.372,12.084C57.442,36.166,61.527,39.359,66.237,39.359z M62.5,20.68l4.396,17.635   c-0.22,0.016-0.439,0.023-0.658,0.023c-4.24,0-7.919-2.875-8.944-6.993C56.201,26.963,58.425,22.481,62.5,20.68z"/><path d="M65.471,72.227c-1.581-3.854-5.297-6.344-9.467-6.344c-0.954,0-1.906,0.135-2.832,0.4   c-5.026,1.443-8.154,6.413-7.274,11.562l0.096,0.562l19.693-5.653L65.471,72.227z M46.825,77.106   c-0.48-4.428,2.288-8.596,6.628-9.843c0.834-0.239,1.692-0.36,2.551-0.36c3.562,0,6.756,2.018,8.29,5.188L46.825,77.106z"/><path d="M66.006,73.857L46.31,79.511l0.217,0.527c1.583,3.853,5.3,6.343,9.468,6.343h0.001c0.953,0,1.905-0.135,2.83-0.4   c5.025-1.442,8.153-6.413,7.275-11.562L66.006,73.857z M58.545,85c-0.834,0.239-1.691,0.36-2.549,0.36h-0.001   c-3.561,0-6.755-2.019-8.291-5.188l17.471-5.015C65.653,79.586,62.885,83.754,58.545,85z"/></g></svg>
