<svg xmlns="http://www.w3.org/2000/svg" xmlns:xlink="http://www.w3.org/1999/xlink" version="1.1" x="0px" y="0px" viewBox="0 0 64 80" enable-background="new 0 0 64 64" xml:space="preserve"><g><path d="M58,23.5h-5.5v-13H54c0.276,0,0.5-0.224,0.5-0.5S54.276,9.5,54,9.5H42c-0.276,0-0.5,0.224-0.5,0.5s0.224,0.5,0.5,0.5h1.5   v13h-7v-13H38c0.276,0,0.5-0.224,0.5-0.5S38.276,9.5,38,9.5H26c-0.276,0-0.5,0.224-0.5,0.5s0.224,0.5,0.5,0.5h1.5v13h-7v-13H22   c0.276,0,0.5-0.224,0.5-0.5S22.276,9.5,22,9.5H10c-0.276,0-0.5,0.224-0.5,0.5s0.224,0.5,0.5,0.5h1.5v13H6   c-0.276,0-0.5,0.224-0.5,0.5s0.224,0.5,0.5,0.5h5.5V52c0,2.481,2.019,4.5,4.5,4.5s4.5-2.019,4.5-4.5V24.5h7V52   c0,2.481,2.019,4.5,4.5,4.5s4.5-2.019,4.5-4.5V24.5h7V52c0,2.481,2.019,4.5,4.5,4.5s4.5-2.019,4.5-4.5V24.5H58   c0.276,0,0.5-0.224,0.5-0.5S58.276,23.5,58,23.5z M12.5,10.5h7v13h-7V10.5z M16,55.5c-1.93,0-3.5-1.57-3.5-3.5v-5.5h7V52   C19.5,53.93,17.93,55.5,16,55.5z M19.5,45.5h-7v-21h7V45.5z M28.5,10.5h7v13h-7V10.5z M32,55.5c-1.93,0-3.5-1.57-3.5-3.5V32.5h7V52   C35.5,53.93,33.93,55.5,32,55.5z M35.5,31.5h-7v-7h7V31.5z M44.5,10.5h7v13h-7V10.5z M48,55.5c-1.93,0-3.5-1.57-3.5-3.5V38.5h7V52   C51.5,53.93,49.93,55.5,48,55.5z M51.5,37.5h-7v-13h7V37.5z"/></g></svg>
