<?xml version="1.0" encoding="utf-8"?>
<!-- Generator: Adobe Illustrator 16.0.0, SVG Export Plug-In . SVG Version: 6.00 Build 0)  -->
<!DOCTYPE svg PUBLIC "-//W3C//DTD SVG 1.1//EN" "http://www.w3.org/Graphics/SVG/1.1/DTD/svg11.dtd">
<svg version="1.1"
	 id="Layer_1" xmlns:rdf="http://www.w3.org/1999/02/22-rdf-syntax-ns#" xmlns:cc="http://creativecommons.org/ns#" xmlns:svg="http://www.w3.org/2000/svg" xmlns:inkscape="http://www.inkscape.org/namespaces/inkscape" xmlns:dc="http://purl.org/dc/elements/1.1/" xmlns:sodipodi="http://sodipodi.sourceforge.net/DTD/sodipodi-0.dtd"
	 xmlns="http://www.w3.org/2000/svg" xmlns:xlink="http://www.w3.org/1999/xlink" x="0px" y="0px" width="1950.239px"
	 height="1224.568px" viewBox="158.74 7296.033 1950.239 1224.568" enable-background="new 158.74 7296.033 1950.239 1224.568"
	 xml:space="preserve">
<g transform="translate(0,-952.36218)">
	<path d="M1020.474,8248.395c-240.324,0-440.334,178.527-472.678,410.314c-216.603,10.207-389.057,186.896-389.057,406.064
		c0,225.744,182.445,408.189,408.19,408.189H1700.79c225.745,0,408.189-182.445,408.189-408.189
		c0-170.814-103.229-316.146-252.284-377.01c-28.398-185.221-190.045-325.984-382.677-325.984
		c-43.022,0-88.933,7.264-129.686,20.551C1259.402,8299.289,1149.36,8248.395,1020.474,8248.395z M1020.474,8293.748
		c121.51,0,222.455,47.971,301.182,128.977c6.201,6.492,15.648,8.715,24.094,5.67c36.385-13.814,85.42-21.26,128.269-21.26
		c174.173,0,319.735,128.834,340.157,296.93c0.851,8.715,6.644,16.162,14.883,19.133
		c138.479,50.838,234.566,184.264,234.566,341.576c0,201.402-161.432,362.834-362.835,362.834H566.93
		c-201.403,0-362.836-161.432-362.836-362.834c0-201.404,161.433-362.836,362.836-362.836c11.738,0.051,21.575-8.863,22.677-20.551
		C611.349,8463.896,796.922,8293.748,1020.474,8293.748z"/>
</g>
</svg>
