<svg xmlns="http://www.w3.org/2000/svg" xmlns:xlink="http://www.w3.org/1999/xlink" version="1.1" x="0px" y="0px" viewBox="0 0 100 125" enable-background="new 0 0 100 100" xml:space="preserve"><path d="M48.948,80.903V77.38c0-1.572-0.075-3.393-0.634-4.982c-0.74-2.104-2.193-3.215-4.202-3.215l-0.231,0.004  c-1.155,0.047-2.628,0.754-4.488,2.16c-0.539-1.189-1.019-2.473-1.46-3.729H69.54v-6.645H36.53v-1.006  c0-9.377,6.174-17.66,15.084-20.398c0.254,0.055,0.517,0.088,0.787,0.088c0.324,0,0.634-0.055,0.934-0.135l5.607,16.152l0.992-0.344  l1.35,3.883l8.543-2.967l-1.348-3.883l0.992-0.344L57.612,17.868l-1.652,0.574l-2.123-6.113l-7.222,2.508l2.123,6.113l-1.653,0.574  l3.826,11.018c-0.023,0.01-0.043,0.025-0.065,0.035c-12.384,3.184-21.261,14.496-21.261,27.391c0,5.691,1.678,11.164,4.857,15.854  c-2.633,2.693-4.723,5.24-4.744,5.266l-0.113,0.139v6.445h40.83v-6.768H48.948z M52.401,33.226c1.498,0,2.717,1.219,2.717,2.715  c0,1.498-1.219,2.717-2.717,2.717s-2.716-1.219-2.716-2.717C49.686,34.444,50.903,33.226,52.401,33.226z M68.554,55.63l-6.652,2.311  l-1.021-2.938l6.654-2.311L68.554,55.63z M49.683,20.622l-1.795-5.168l5.333-1.852l1.794,5.168l-2.666,0.926L49.683,20.622z   M48.357,22.142l0.709-0.246l0,0l7.222-2.508v-0.002l0.707-0.244l11.203,32.262l-0.047,0.016l0,0l-8.545,2.967l0,0l-0.047,0.016  l-5.3-15.262c1.105-0.645,1.858-1.83,1.858-3.199c0-1.973-1.552-3.578-3.498-3.693v-0.098l-0.495,0.104  c-0.083,0.006-0.166,0.014-0.248,0.025L48.357,22.142z M69.415,86.671h-38.83v-5.088c0.485-0.582,2.476-2.943,4.859-5.354  l0.293-0.295l-0.239-0.342c-3.214-4.598-4.913-10-4.913-15.625c0-11.758,7.661-22.135,18.588-25.83  c-0.302,0.537-0.487,1.146-0.487,1.803c0,1.258,0.631,2.365,1.588,3.039C41.517,42.155,35.53,50.526,35.53,59.968v2.006h33.01v4.645  H36.526l0.229,0.664c0.584,1.688,1.229,3.469,1.998,5.059l0.271,0.563l0.488-0.389c2.368-1.873,3.704-2.299,4.407-2.328l0.191-0.004  c3.399,0,3.836,3.846,3.836,7.197v4.523h21.467V86.671z"/></svg>
