<svg xmlns="http://www.w3.org/2000/svg" xmlns:xlink="http://www.w3.org/1999/xlink" version="1.1" x="0px" y="0px" viewBox="0 0 100 125" enable-background="new 0 0 100 100" xml:space="preserve"><g><g><path d="M24.4,31.8c4.2,0,7.5,3.4,7.5,7.5s-3.4,7.5-7.5,7.5c-4.2,0-7.5-3.4-7.5-7.5S20.2,31.8,24.4,31.8 M24.4,30.8    c-4.7,0-8.5,3.8-8.5,8.5s3.8,8.5,8.5,8.5c4.7,0,8.5-3.8,8.5-8.5S29.1,30.8,24.4,30.8L24.4,30.8z"/></g><g><path d="M50,31.8c4.2,0,7.5,3.4,7.5,7.5c0,4.1-3.4,7.5-7.5,7.5l0,0l0,0l0,0c-4.1,0-7.5-3.4-7.5-7.5C42.5,35.2,45.8,31.8,50,31.8    L50,31.8 M50,30.8C50,30.8,50,30.8,50,30.8c-4.7,0-8.6,3.8-8.6,8.5s3.8,8.5,8.5,8.5c0,0,0,0,0,0c0,0,0,0,0,0    c4.7,0,8.5-3.8,8.5-8.5S54.7,30.8,50,30.8L50,30.8z"/></g><g><path d="M24.4,51c3.4,0,6.7,0.9,9.5,2.7c-3.8,3.9-6,9.1-6.2,14.5H6.2C6.7,58.6,14.7,51,24.4,51 M24.4,50    C13.8,50,5.2,58.6,5.2,69.2h23.5c0-6.2,2.6-11.7,6.9-15.6C32.4,51.3,28.5,50,24.4,50L24.4,50z"/></g><g><path d="M75.6,31.8c4.2,0,7.5,3.4,7.5,7.5s-3.4,7.5-7.5,7.5c-4.2,0-7.5-3.4-7.5-7.5S71.5,31.8,75.6,31.8 M75.6,30.8    c-4.7,0-8.5,3.8-8.5,8.5s3.8,8.5,8.5,8.5c4.7,0,8.5-3.8,8.5-8.5S80.3,30.8,75.6,30.8L75.6,30.8z"/></g><g><path d="M75.6,51c9.7,0,17.7,7.6,18.2,17.2H72.3c-0.2-5.4-2.5-10.6-6.2-14.5C68.9,51.9,72.2,51,75.6,51 M75.6,50    c-4.1,0-8,1.3-11.1,3.6c4.2,3.9,6.9,9.5,6.9,15.6h23.5C94.8,58.6,86.2,50,75.6,50L75.6,50z"/></g><g><path d="M50,51c9.7,0,17.6,7.6,18.2,17.2h-18h-0.3h-18C32.3,58.6,40.3,51,50,51L50,51L50,51L50,51 M50,50C50,50,50,50,50,50    C50,50,50,50,50,50c-10.6,0-19.2,8.6-19.2,19.2h19.1h0.3h19.1C69.2,58.6,60.6,50,50,50L50,50z"/></g></g></svg>
