<?xml version="1.0" encoding="utf-8"?>
<!-- Generator: Adobe Illustrator 16.0.0, SVG Export Plug-In . SVG Version: 6.00 Build 0)  -->
<!DOCTYPE svg PUBLIC "-//W3C//DTD SVG 1.1//EN" "http://www.w3.org/Graphics/SVG/1.1/DTD/svg11.dtd">
<svg version="1.1"
	 id="Layer_1" xmlns:rdf="http://www.w3.org/1999/02/22-rdf-syntax-ns#" xmlns:cc="http://creativecommons.org/ns#" xmlns:svg="http://www.w3.org/2000/svg" xmlns:inkscape="http://www.inkscape.org/namespaces/inkscape" xmlns:dc="http://purl.org/dc/elements/1.1/" xmlns:sodipodi="http://sodipodi.sourceforge.net/DTD/sodipodi-0.dtd"
	 xmlns="http://www.w3.org/2000/svg" xmlns:xlink="http://www.w3.org/1999/xlink" x="0px" y="0px" width="1952.79px"
	 height="1951.451px" viewBox="156.513 6932.018 1952.79 1951.451" enable-background="new 156.513 6932.018 1952.79 1951.451"
	 xml:space="preserve">
<g transform="translate(0,-952.36218)">
	<path d="M1131.025,7884.559c-11.682,1.464-20.301,11.623-19.842,23.387v929.765H181.418c-1.414-0.133-2.838-0.133-4.252,0
		c-12.524,1.174-21.726,12.279-20.552,24.804c1.175,12.523,12.279,21.725,24.804,20.551h929.766v929.766
		c-0.178,12.523,9.832,22.82,22.355,22.998c12.524,0.176,22.821-9.832,22.998-22.357c0.004-0.213,0.004-0.428,0-0.641v-929.766
		h929.766c12.524,0.177,22.82-9.832,22.998-22.356c0.177-12.524-9.832-22.821-22.356-22.998c-0.214-0.003-0.428-0.003-0.642,0
		h-929.766v-929.765c0.49-12.517-9.26-23.06-21.775-23.549C1133.513,7884.348,1132.264,7884.402,1131.025,7884.559z"/>
</g>
</svg>
