<?xml version="1.0" encoding="utf-8"?>
<!-- Generator: Adobe Illustrator 16.0.0, SVG Export Plug-In . SVG Version: 6.00 Build 0)  -->
<!DOCTYPE svg PUBLIC "-//W3C//DTD SVG 1.1//EN" "http://www.w3.org/Graphics/SVG/1.1/DTD/svg11.dtd">
<svg version="1.1" id="Layer_1" xmlns="http://www.w3.org/2000/svg" xmlns:xlink="http://www.w3.org/1999/xlink" x="0px" y="0px"
	 width="2264.375px" height="2264.354px" viewBox="2.381 6770.385 2264.375 2264.354"
	 enable-background="new 2.381 6770.385 2264.375 2264.354" xml:space="preserve">
<title>saletag</title>
<desc>Created with Sketch.</desc>
<g>
	<g transform="translate(-28.000000, -29.000000)">
		
			<linearGradient id="SVGID_1_" gradientUnits="userSpaceOnUse" x1="-769.4792" y1="2157.3037" x2="1494.8962" y2="2157.3037" gradientTransform="matrix(1 0 0 -1 799.8599 10088.8652)">
			<stop  offset="0" style="stop-color:#57BFEB"/>
			<stop  offset="1" style="stop-color:#3B86A5"/>
		</linearGradient>
		<path fill="url(#SVGID_1_)" d="M89.706,7730.188c-34.508-34.508-61.036-101.899-59.239-150.855l24.362-663.884
			c1.791-48.808,42.66-89.819,91.616-91.616l663.883-24.361c48.809-1.791,116.351,24.732,150.856,59.238l1307.728,1307.729
			c34.508,34.508,34.474,90.489-0.192,125.155l-746.129,746.128c-34.614,34.617-90.651,34.699-125.157,0.195L89.706,7730.188z
			 M607.797,7376.799c62.744-62.746,62.711-164.512-0.077-227.299s-164.554-62.822-227.298-0.077
			c-62.746,62.745-62.712,164.51,0.076,227.298S545.052,7439.544,607.797,7376.799z"/>
	</g>
</g>
<g enable-background="new    ">
	<path fill="#FFFFFF" d="M894.812,7391.124l171.176,171.177l-14.52,14.52l-154.364-154.365l-109.277,109.277l139.081,139.082
		l-14.521,14.52l-139.081-139.08l-134.495,134.494L622,7663.938L894.812,7391.124z"/>
	<path fill="#FFFFFF" d="M1091.204,7587.516l113.862,113.863c11.971,11.969,21.965,24.387,29.994,37.254
		c8.019,12.865,13.242,25.98,15.666,39.355c2.412,13.371,1.396,26.746-3.057,40.119c-4.466,13.373-13.313,26.686-26.556,39.928
		c-18.341,18.34-38.973,28.656-61.897,30.949c-22.926,2.293-45.088-4.203-66.484-19.486l-0.765,0.764
		c10.95,14.008,17.511,27.195,19.678,39.547c2.161,12.359,1.332,24.006-2.484,34.961c-3.827,10.955-9.684,21.398-17.576,31.332
		c-7.905,9.934-16.305,19.361-25.219,28.275c-5.349,5.348-10.573,10.572-15.666,15.666c-5.098,5.098-9.624,10.125-13.563,15.09
		c-3.953,4.969-7.26,9.936-9.935,14.904c-2.674,4.967-4.275,9.742-4.776,14.326l-18.722-18.721
		c2.794-9.936,8.274-19.355,16.43-28.275c8.149-8.914,16.812-17.959,25.981-27.129s17.894-18.656,26.174-28.465
		c8.274-9.803,13.94-20.316,17.003-31.523c3.05-11.205,2.352-23.367-2.102-36.488c-4.46-13.117-14.71-27.703-30.758-43.75
		l-97.051-97.051l-124.18,124.18l-16.812-16.812L1091.204,7587.516z M1070.952,7835.492c9.935,9.936,20.371,17.957,31.333,24.07
		c10.948,6.115,22.029,9.684,33.242,10.699c11.205,1.021,22.537-0.639,34.005-4.967c11.457-4.328,22.669-11.971,33.624-22.924
		c10.186-10.188,17.002-20.824,20.442-31.906c3.438-11.08,4.263-22.102,2.483-33.051c-1.785-10.955-5.863-21.648-12.227-32.096
		c-6.371-10.439-14.138-20.25-23.309-29.42l-97.05-97.051l-119.595,119.594L1070.952,7835.492z"/>
	<path fill="#FFFFFF" d="M1331.917,7828.229l183.403,183.402l-14.52,14.52l-166.592-166.592l-109.277,109.277l156.657,156.658
		l-14.521,14.521l-156.657-156.658l-119.976,119.975l168.502,168.504l-14.52,14.52l-185.313-185.314L1331.917,7828.229z"/>
	<path fill="#FFFFFF" d="M1545.886,8042.197l183.403,183.404l-14.52,14.52l-166.592-166.592l-109.277,109.277l156.657,156.656
		l-14.521,14.521l-156.656-156.656l-119.976,119.975l168.502,168.502l-14.52,14.52l-185.313-185.314L1545.886,8042.197z"/>
</g>
</svg>
