<?xml version="1.0" encoding="iso-8859-1"?>
<!-- Generator: Adobe Illustrator 19.1.0, SVG Export Plug-In . SVG Version: 6.00 Build 0)  -->
<svg version="1.1" id="Capa_1" xmlns="http://www.w3.org/2000/svg" xmlns:xlink="http://www.w3.org/1999/xlink" x="0px" y="0px"
	 viewBox="0 0 92 92" style="enable-background:new 0 0 92 92;" xml:space="preserve">
<path d="M74,56c-6.422,0-12.054,3.392-15.241,8.468l-23.74-12.656C35.644,49.986,36,48.036,36,46c0-2.349-0.465-4.587-1.287-6.646
	l23.586-12.578C61.384,32.272,67.262,36,74,36c9.925,0,18-8.075,18-18S83.925,0,74,0S56,8.075,56,18c0,1.763,0.266,3.463,0.74,5.074
	l-23.908,12.75C29.584,31.104,24.15,28,18,28C8.075,28,0,36.075,0,46s8.075,18,18,18c6.465,0,12.129-3.438,15.303-8.571
	l23.72,12.645C56.372,69.933,56,71.922,56,74c0,9.925,8.075,18,18,18s18-8.075,18-18S83.925,56,74,56z M74,4c7.72,0,14,6.28,14,14
	s-6.28,14-14,14s-14-6.28-14-14S66.28,4,74,4z M18,60c-7.72,0-14-6.28-14-14s6.28-14,14-14s14,6.28,14,14S25.72,60,18,60z M74,88
	c-7.72,0-14-6.28-14-14s6.28-14,14-14s14,6.28,14,14S81.72,88,74,88z"/>
<g>
</g>
<g>
</g>
<g>
</g>
<g>
</g>
<g>
</g>
<g>
</g>
<g>
</g>
<g>
</g>
<g>
</g>
<g>
</g>
<g>
</g>
<g>
</g>
<g>
</g>
<g>
</g>
<g>
</g>
</svg>
