<?xml version="1.0" encoding="utf-8"?>
<!-- Generator: Adobe Illustrator 16.0.0, SVG Export Plug-In . SVG Version: 6.00 Build 0)  -->
<!DOCTYPE svg PUBLIC "-//W3C//DTD SVG 1.1//EN" "http://www.w3.org/Graphics/SVG/1.1/DTD/svg11.dtd">
<svg version="1.1" id="Layer_1" xmlns="http://www.w3.org/2000/svg" xmlns:xlink="http://www.w3.org/1999/xlink" x="0px" y="0px"
	 width="1000px" height="2000px" viewBox="0 0 1000 2000" enable-background="new 0 0 1000 2000" xml:space="preserve">
<rect fill="#FFFFFF" width="1000" height="2000"/>
<g>
	<defs>
		<rect id="SVGID_1_" width="1000" height="2000"/>
	</defs>
	<clipPath id="SVGID_2_">
		<use xlink:href="#SVGID_1_"  overflow="visible"/>
	</clipPath>
	<rect clip-path="url(#SVGID_2_)" fill="#FFFFFF" width="1000" height="2000"/>
	<path clip-path="url(#SVGID_2_)" fill="none" stroke="#A6AAA9" stroke-width="2" stroke-dasharray="12,12" d="M490.63,87.213
		c-7.43,44.556-25.824,86.565-53.524,122.247c-29.395,37.863-68.196,67.138-99.591,103.325
		C166.72,509.65,232.735,815.215,469.806,917.986c55.355,23.997,116.349,32.189,176.195,24.401
		c36.371-4.733,71.33-24.141,67.312-56.234c-3.81-30.415-39.635-38.196-68.412-50.248c-48.649-20.374-79.688-69.044-75.733-121.423
		c4.642-61.476,52.62-111.204,114.063-117.68c58.145-6.128,113.466,27.771,141.503,79.798
		c84.522,156.842-19.164,313.081-160.411,425.935c-100.76,80.505-214.104,149.292-285.67,256.898
		c-49.352,74.207-73.424,166.191-32.719,244.034c21.07,40.294,58.676,70.37,103.61,72.135
		c68.214,2.679,122.077-51.952,119.979-117.8c-2.03-63.729-56.304-114.204-122.449-109.643
		c-73.533,5.071-122.921,77.686-99.262,147.883"/>
</g>
<g>
	<defs>
		<rect id="SVGID_3_" x="188.017" y="229" width="312.927" height="184.897"/>
	</defs>
	<clipPath id="SVGID_4_">
		<use xlink:href="#SVGID_3_"  overflow="visible"/>
	</clipPath>
	<g opacity="0.1585" clip-path="url(#SVGID_4_)" enable-background="new    ">
		<g>
			<defs>
				<rect id="SVGID_5_" x="188" y="229" width="313" height="185"/>
			</defs>
			<clipPath id="SVGID_6_">
				<use xlink:href="#SVGID_5_"  overflow="visible"/>
			</clipPath>
			<g clip-path="url(#SVGID_6_)">
				<defs>
					<rect id="SVGID_7_" x="188" y="229" width="313" height="185"/>
				</defs>
				<clipPath id="SVGID_8_">
					<use xlink:href="#SVGID_7_"  overflow="visible"/>
				</clipPath>
				<g clip-path="url(#SVGID_8_)">
					<defs>
						<rect id="SVGID_9_" x="188" y="229" width="313" height="185"/>
					</defs>
					<clipPath id="SVGID_10_">
						<use xlink:href="#SVGID_9_"  overflow="visible"/>
					</clipPath>
					<path clip-path="url(#SVGID_10_)" fill="#008CCD" d="M444.073,300.217h-0.164C441.391,260.459,408.281,229,367.843,229
						c-37.33,0-68.378,26.788-74.954,62.135c-0.851-0.033-1.733-0.065-2.584-0.065c-27.81,0-51.267,18.392-58.923,43.644
						c-1.178-0.098-2.388-0.163-3.599-0.163c-21.953,0-39.784,17.771-39.784,39.724C188,396.228,205.798,414,227.751,414H444.04
						c31.474,0,56.96-25.481,56.96-56.876C501,325.73,475.546,300.217,444.073,300.217"/>
				</g>
			</g>
		</g>
	</g>
</g>
<g>
	<defs>
		<rect id="SVGID_11_" x="306" y="255.297" width="312.59" height="185.232"/>
	</defs>
	<clipPath id="SVGID_12_">
		<use xlink:href="#SVGID_11_"  overflow="visible"/>
	</clipPath>
	<g opacity="0.4674" clip-path="url(#SVGID_12_)" enable-background="new    ">
		<g>
			<defs>
				<rect id="SVGID_13_" x="306" y="255" width="313" height="186"/>
			</defs>
			<clipPath id="SVGID_14_">
				<use xlink:href="#SVGID_13_"  overflow="visible"/>
			</clipPath>
			<g clip-path="url(#SVGID_14_)">
				<defs>
					<rect id="SVGID_15_" x="306" y="255" width="313" height="186"/>
				</defs>
				<clipPath id="SVGID_16_">
					<use xlink:href="#SVGID_15_"  overflow="visible"/>
				</clipPath>
				<g clip-path="url(#SVGID_16_)">
					<defs>
						<rect id="SVGID_17_" x="306" y="255" width="313" height="186"/>
					</defs>
					<clipPath id="SVGID_18_">
						<use xlink:href="#SVGID_17_"  overflow="visible"/>
					</clipPath>
					<path clip-path="url(#SVGID_18_)" fill="#008CCD" d="M562.073,326.602h-0.164C559.391,286.63,526.281,255,485.843,255
						c-37.33,0-68.378,26.933-74.954,62.471c-0.851-0.033-1.733-0.065-2.584-0.065c-27.81,0-51.267,18.492-58.923,43.881
						c-1.178-0.099-2.388-0.165-3.599-0.165c-21.953,0-39.784,17.868-39.784,39.939c0,22.072,17.798,39.94,39.751,39.94H562.04
						c31.474,0,56.96-25.619,56.96-57.183S593.547,326.602,562.073,326.602"/>
				</g>
			</g>
		</g>
	</g>
</g>
<g>
	<defs>
		<rect id="SVGID_19_" x="208" y="282" width="313" height="185"/>
	</defs>
	<clipPath id="SVGID_20_">
		<use xlink:href="#SVGID_19_"  overflow="visible"/>
	</clipPath>
	<g clip-path="url(#SVGID_20_)">
		<defs>
			<rect id="SVGID_21_" x="208.243" y="282" width="312.757" height="185"/>
		</defs>
		<clipPath id="SVGID_22_">
			<use xlink:href="#SVGID_21_"  overflow="visible"/>
		</clipPath>
		<g opacity="0.7955" clip-path="url(#SVGID_22_)" enable-background="new    ">
			<g>
				<defs>
					<rect id="SVGID_23_" x="208" y="282" width="313" height="185"/>
				</defs>
				<clipPath id="SVGID_24_">
					<use xlink:href="#SVGID_23_"  overflow="visible"/>
				</clipPath>
				<g clip-path="url(#SVGID_24_)">
					<defs>
						<rect id="SVGID_25_" x="208" y="282" width="313" height="185"/>
					</defs>
					<clipPath id="SVGID_26_">
						<use xlink:href="#SVGID_25_"  overflow="visible"/>
					</clipPath>
					<g clip-path="url(#SVGID_26_)">
						<defs>
							<rect id="SVGID_27_" x="208" y="282" width="313" height="185"/>
						</defs>
						<clipPath id="SVGID_28_">
							<use xlink:href="#SVGID_27_"  overflow="visible"/>
						</clipPath>
						<path clip-path="url(#SVGID_28_)" fill="#008CCD" d="M464.073,353.217h-0.164C461.391,313.459,428.281,282,387.843,282
							c-37.33,0-68.378,26.788-74.954,62.135c-0.851-0.033-1.733-0.065-2.584-0.065c-27.81,0-51.267,18.392-58.923,43.644
							c-1.178-0.098-2.388-0.163-3.599-0.163c-21.953,0-39.784,17.771-39.784,39.724C208,449.228,225.798,467,247.751,467H464.04
							c31.474,0,56.96-25.481,56.96-56.876C521,378.73,495.546,353.217,464.073,353.217"/>
					</g>
				</g>
			</g>
		</g>
	</g>
</g>
<g>
	<defs>
		<rect id="SVGID_29_" x="491" y="611" width="326" height="325"/>
	</defs>
	<clipPath id="SVGID_30_">
		<use xlink:href="#SVGID_29_"  overflow="visible"/>
	</clipPath>
	<g clip-path="url(#SVGID_30_)">
		<defs>
			<rect id="SVGID_31_" x="491" y="611" width="326" height="325"/>
		</defs>
		<clipPath id="SVGID_32_">
			<use xlink:href="#SVGID_31_"  overflow="visible"/>
		</clipPath>
		<path clip-path="url(#SVGID_32_)" fill="#008CCD" d="M624.871,874.916l-7.432-2.737c0.586-5.417,0.391-10.938-0.625-16.426
			l7.175-3.303c4.483-2.063,6.448-7.392,4.382-11.872l-4.191-9.087c-2.062-4.479-7.384-6.446-11.859-4.385l-7.188,3.311
			c-3.507-4.348-7.581-8.077-12.078-11.161l2.743-7.417c1.705-4.626-0.668-9.784-5.293-11.495l-9.396-3.466
			c-4.486-1.652-9.841,0.813-11.49,5.287l-2.74,7.424c-5.416-0.575-10.937-0.387-16.433,0.625l-3.304-7.178
			c-2.064-4.477-7.395-6.447-11.867-4.383l-9.098,4.18c-4.48,2.068-6.442,7.398-4.384,11.871l3.307,7.171
			c-4.341,3.517-8.081,7.59-11.158,12.091l-7.415-2.742c-4.479-1.67-9.841,0.799-11.501,5.289l-3.467,9.393
			c-0.829,2.247-0.73,4.674,0.267,6.847c1.005,2.168,2.791,3.822,5.026,4.634l7.432,2.748c-0.588,5.412-0.398,10.942,0.625,16.426
			l-7.183,3.306c-4.48,2.061-6.443,7.384-4.382,11.864l4.189,9.097c2.067,4.474,7.389,6.441,11.867,4.375l7.181-3.298
			c3.513,4.343,7.584,8.074,12.086,11.153l-2.743,7.425c-0.834,2.24-0.737,4.661,0.268,6.836c0.992,2.173,2.783,3.828,5.023,4.659
			l9.396,3.464c2.234,0.831,4.67,0.732,6.841-0.265c2.174-1.002,3.823-2.788,4.646-5.027l2.745-7.427
			c5.414,0.585,10.942,0.39,16.43-0.618l3.305,7.174c2.063,4.476,7.392,6.441,11.869,4.377l9.095-4.186
			c4.486-2.061,6.451-7.385,4.382-11.864l-3.307-7.173c4.347-3.515,8.084-7.585,11.155-12.083l7.427,2.745
			c2.248,0.831,4.678,0.728,6.852-0.276c2.165-0.999,3.812-2.785,4.641-5.022l3.467-9.391
			C631.867,881.785,629.496,876.629,624.871,874.916 M575.662,898.286c-4.689,2.162-9.664,3.247-14.792,3.247
			c-13.775,0-26.391-8.077-32.149-20.569c-8.155-17.725-0.382-38.771,17.334-46.931c4.687-2.162,9.661-3.253,14.781-3.253
			c13.767,0,26.398,8.077,32.154,20.572C601.151,869.074,593.375,890.123,575.662,898.286"/>
		<path clip-path="url(#SVGID_32_)" fill="#008CCD" d="M713.362,900.525l-4.136-1.52c0.329-3.02,0.22-6.097-0.35-9.149l3.993-1.844
			c2.5-1.144,3.593-4.107,2.441-6.606l-2.331-5.064c-1.155-2.499-4.114-3.598-6.606-2.443l-4.002,1.841
			c-1.951-2.416-4.221-4.503-6.723-6.213l1.523-4.132c0.949-2.577-0.374-5.445-2.948-6.404l-5.234-1.927
			c-2.497-0.927-5.476,0.449-6.4,2.945l-1.526,4.135c-3.01-0.324-6.09-0.214-9.146,0.347l-1.836-3.99
			c-1.158-2.496-4.12-3.592-6.617-2.443l-5.065,2.333c-2.497,1.158-3.588,4.116-2.44,6.613l1.842,3.992
			c-2.417,1.957-4.502,4.229-6.219,6.735l-4.127-1.526c-2.489-0.927-5.478,0.441-6.4,2.946l-1.933,5.23
			c-0.46,1.253-0.403,2.606,0.145,3.817c0.562,1.2,1.559,2.122,2.805,2.579l4.136,1.528c-0.329,3.019-0.223,6.091,0.347,9.151
			l-3.996,1.837c-2.497,1.154-3.591,4.113-2.438,6.609l2.337,5.067c1.144,2.491,4.108,3.587,6.603,2.438l3.997-1.836
			c1.954,2.416,4.227,4.495,6.733,6.205l-1.526,4.13c-0.465,1.253-0.411,2.607,0.147,3.815c0.556,1.206,1.548,2.13,2.802,2.593
			l5.229,1.932c1.249,0.46,2.599,0.404,3.81-0.152c1.211-0.556,2.131-1.551,2.588-2.793l1.526-4.143
			c3.019,0.329,6.09,0.225,9.15-0.345l1.84,3.993c1.149,2.491,4.114,3.592,6.605,2.438l5.068-2.333
			c2.497-1.155,3.588-4.108,2.438-6.607l-1.84-3.998c2.42-1.954,4.502-4.215,6.211-6.725l4.135,1.524
			c1.252,0.47,2.606,0.406,3.817-0.15c1.2-0.553,2.126-1.553,2.585-2.798l1.934-5.231
			C717.258,904.35,715.934,901.474,713.362,900.525 M685.961,913.538c-2.611,1.198-5.379,1.812-8.233,1.812
			c-7.667,0-14.695-4.5-17.9-11.457c-4.545-9.865-0.22-21.59,9.65-26.128c2.612-1.2,5.379-1.809,8.231-1.809
			c7.664,0,14.692,4.498,17.9,11.452C700.148,897.273,695.823,908.992,685.961,913.538"/>
		<path clip-path="url(#SVGID_32_)" fill="#008CCD" d="M807.167,743.099l-12.492-4.61c0.989-9.109,0.663-18.395-1.048-27.627
			l12.067-5.552c7.527-3.458,10.829-12.419,7.359-19.959l-7.039-15.282c-3.47-7.534-12.423-10.851-19.945-7.374l-12.083,5.57
			c-5.902-7.31-12.752-13.582-20.307-18.762l4.606-12.476c2.865-7.78-1.117-16.452-8.895-19.32l-15.796-5.842
			c-7.536-2.77-16.54,1.373-19.325,8.899l-4.606,12.49c-9.105-0.981-18.395-0.658-27.623,1.042l-5.561-12.054
			c-3.47-7.531-12.423-10.837-19.956-7.368l-15.291,7.037c-7.533,3.472-10.843,12.43-7.379,19.954l5.568,12.061
			c-7.298,5.91-13.588,12.757-18.764,20.32l-12.471-4.604c-7.528-2.804-16.545,1.347-19.33,8.883l-5.828,15.801
			c-1.396,3.766-1.229,7.852,0.443,11.5c1.692,3.648,4.697,6.425,8.456,7.796l12.489,4.624c-0.991,9.098-0.668,18.396,1.048,27.622
			l-12.066,5.553c-7.536,3.472-10.833,12.415-7.365,19.941l7.041,15.301c3.471,7.515,12.423,10.835,19.951,7.36l12.072-5.556
			c5.903,7.309,12.752,13.582,20.32,18.756l-4.611,12.481c-1.404,3.758-1.238,7.845,0.446,11.501
			c1.673,3.643,4.681,6.43,8.444,7.828l15.794,5.821c3.767,1.392,7.856,1.232,11.506-0.438c3.651-1.681,6.424-4.688,7.812-8.451
			l4.619-12.497c9.103,0.991,18.39,0.668,27.632-1.04l5.55,12.06c3.47,7.521,12.428,10.843,19.958,7.366l15.294-7.043
			c7.539-3.472,10.838-12.414,7.365-19.946l-5.558-12.062c7.301-5.915,13.591-12.754,18.756-20.318l12.489,4.624
			c3.772,1.39,7.862,1.224,11.517-0.457c3.639-1.678,6.408-4.685,7.804-8.445l5.836-15.796
			C818.938,754.637,814.943,745.964,807.167,743.099 M724.439,782.376c-7.887,3.627-16.248,5.471-24.867,5.471
			c-23.158,0-44.366-13.585-54.051-34.598c-13.72-29.789-0.65-65.182,29.136-78.893c7.876-3.632,16.243-5.465,24.854-5.465
			c23.156,0,44.377,13.574,54.062,34.583C767.287,733.269,754.223,768.665,724.439,782.376"/>
	</g>
</g>
<g>
	<defs>
		<rect id="SVGID_33_" width="1000" height="2000"/>
	</defs>
	<clipPath id="SVGID_34_">
		<use xlink:href="#SVGID_33_"  overflow="visible"/>
	</clipPath>
	<g clip-path="url(#SVGID_34_)">
		<defs>
			<rect id="SVGID_35_" x="483" y="1055" width="276" height="276"/>
		</defs>
		<clipPath id="SVGID_36_">
			<use xlink:href="#SVGID_35_"  overflow="visible"/>
		</clipPath>
	</g>
	<circle clip-path="url(#SVGID_34_)" fill="#53585F" cx="607.811" cy="1146.237" r="26.994"/>
	<circle clip-path="url(#SVGID_34_)" fill="#53585F" cx="797.678" cy="965.005" r="13.561"/>
	<circle clip-path="url(#SVGID_34_)" fill="#53585F" cx="854.132" cy="821.895" r="13.56"/>
</g>
<g>
	<defs>
		
			<rect id="SVGID_37_" x="230.069" y="697.307" transform="matrix(-0.1299 0.9915 -0.9915 -0.1299 1076.7334 567.9647)" width="118.209" height="118.177"/>
	</defs>
	<clipPath id="SVGID_38_">
		<use xlink:href="#SVGID_37_"  overflow="visible"/>
	</clipPath>
	<g clip-path="url(#SVGID_38_)">
		<defs>
			
				<rect id="SVGID_39_" x="230.069" y="697.291" transform="matrix(-0.1299 0.9915 -0.9915 -0.1299 1076.7333 567.9654)" width="118.209" height="118.209"/>
		</defs>
		<clipPath id="SVGID_40_">
			<use xlink:href="#SVGID_39_"  overflow="visible"/>
		</clipPath>
		<g clip-path="url(#SVGID_40_)">
			<defs>
				<rect id="SVGID_41_" width="1000" height="2000"/>
			</defs>
			<clipPath id="SVGID_42_">
				<use xlink:href="#SVGID_41_"  overflow="visible"/>
			</clipPath>
			<path clip-path="url(#SVGID_42_)" fill="#0D4972" d="M270.173,694.635c-0.51,0.239-0.901,0.661-1.089,1.191
				c-0.397,1.079,0.218,2.374,1.234,2.747c0.745,0.303,2.74,1.22,5.177,3.066l1.137,0.856L240.3,730.412l-0.534-1.325
				c-1.337-3.326-1.573-5.703-1.582-5.809c-0.118-1.168-1.165-2.028-2.333-1.919c-1.099,0.1-2.05,1.146-1.933,2.349
				c0.035,0.317,4.183,31.83,49.112,32.056l1.331,0.006l-0.28,1.302c-0.492,2.353-0.891,4.713-1.192,7.017
				c-4.683,35.734,15.806,52.291,16.681,52.975c0.765,0.607,1.854,0.612,2.606,0.023c0.136-0.092,0.258-0.222,0.42-0.408
				c0.595-0.756,0.4-2.35-0.38-2.976c-0.377-0.305-2.381-1.976-4.826-5.115l-0.669-0.861l40.129-30.821l0.661,0.872
				c2.4,3.181,3.486,5.518,3.681,5.952c0.472,1.092,1.746,1.607,2.826,1.143c0.16-0.07,0.309-0.16,0.462-0.278
				c0.407-0.32,0.706-0.87,0.784-1.465c0.051-0.388,0.001-0.757-0.127-1.062c-0.495-1.152-12.545-28.249-53.992-30.423l-1.331-0.071
				l0.337-1.288c0.953-3.609,1.653-7.147,2.095-10.521c4.637-35.382-20.159-45.097-20.417-45.196
				C271.29,694.366,270.698,694.394,270.173,694.635 M319.267,762.917c4.664,2.336,8.884,5.228,12.489,8.539l2.264,2.52
				l-39.529,30.258l-1.673-2.743c-2.317-4.398-4.026-9.227-5.094-14.398l-0.637-2.158l30.142-23.016L319.267,762.917z
				 M310.227,759.287l1.981,0.625l-25.557,19.632l-0.092-2.08c-0.299-6.483,0.38-13.646,1.983-20.761l0.208-0.886l0.901,0.038
				C297,756.143,303.921,757.299,310.227,759.287 M288.521,732.871c-0.155,5.504-1.126,11.512-2.884,17.826l-0.225,0.783
				l-0.81,0.012c-6.586,0.073-12.65-0.523-18.02-1.774l-3.647-0.86l25.823-19.766L288.521,732.871z M281.523,707.745
				c3.158,4.246,5.282,9.296,6.303,14.914l0.053,1.446l-29.624,22.953l-1.277-0.589c-5.292-2.46-9.622-5.8-12.896-9.944
				l-1.368-1.679l37.091-28.934L281.523,707.745z"/>
		</g>
	</g>
</g>
<g>
	<defs>
		<rect id="SVGID_43_" x="250.997" y="1356" width="411.003" height="412"/>
	</defs>
	<clipPath id="SVGID_44_">
		<use xlink:href="#SVGID_43_"  overflow="visible"/>
	</clipPath>
	<g clip-path="url(#SVGID_44_)">
		<defs>
			<rect id="SVGID_45_" x="251" y="1356" width="411" height="412"/>
		</defs>
		<clipPath id="SVGID_46_">
			<use xlink:href="#SVGID_45_"  overflow="visible"/>
		</clipPath>
		<path clip-path="url(#SVGID_46_)" fill="#008CCD" d="M521.841,1383.108l-9.43,9.464c-30.824-30.898-81-30.898-111.825,0
			l-9.43-9.464C427.184,1346.96,485.825,1346.96,521.841,1383.108 M407.468,1399.447l9.429,9.464
			c21.83-21.859,57.386-21.859,79.205,0l9.453-9.464C478.51,1372.361,434.511,1372.361,407.468,1399.447 M424.307,1416.351
			l9.452,9.464c12.542-12.595,32.985-12.595,45.502,0l9.478-9.477C470.948,1398.529,442.061,1398.529,424.307,1416.351
			 M521.841,1740.903l-9.43-9.476c-30.824,30.898-81,30.898-111.825,0l-9.43,9.476
			C427.195,1777.04,485.849,1777.04,521.841,1740.903 M505.541,1724.553l-9.429-9.452c-21.829,21.848-57.397,21.848-79.203,0
			l-9.453,9.452C434.511,1751.638,478.51,1751.638,505.541,1724.553 M488.714,1707.661l-9.441-9.476
			c-12.552,12.596-32.997,12.596-45.526,0l-9.453,9.487C442.061,1725.471,470.948,1725.471,488.714,1707.661 M634.992,1496.512
			l-9.465,9.464c30.825,30.91,30.825,81.185,0,112.073l9.465,9.463C671.019,1591.387,671.019,1532.613,634.992,1496.512
			 M618.658,1512.85l-9.43,9.465c21.806,21.858,21.806,57.513,0,79.372l9.43,9.476
			C645.689,1584.054,645.689,1539.947,618.658,1512.85 M601.819,1529.729l-9.465,9.452c12.564,12.596,12.564,33.089,0,45.637
			l9.465,9.487C619.574,1576.473,619.574,1547.527,601.819,1529.729 M278.028,1627.488l9.477-9.452
			c-30.849-30.911-30.849-81.196-0.024-112.096l-9.453-9.453C241.991,1532.625,241.991,1591.398,278.028,1627.488 M294.351,1611.162
			l9.429-9.464c-21.806-21.871-21.806-57.525,0-79.373l-9.429-9.476C267.32,1539.959,267.32,1584.064,294.351,1611.162
			 M311.202,1594.282l9.441-9.464c-12.564-12.584-12.564-33.077,0-45.637l-9.452-9.476
			C293.435,1547.527,293.435,1576.473,311.202,1594.282 M527.841,1509.659l-1.045,1.437l6.329,8.182l3.663-2.261
			c-0.786-0.259-1.573-0.777-2.207-1.589C534.593,1515.428,529.731,1512.061,527.841,1509.659 M565.312,1562.006
			c0,60.221-48.685,109.048-108.784,109.048c-60.098,0-108.83-48.804-108.83-109.048c0-60.209,48.72-109.059,108.83-109.059
			C516.614,1452.947,565.312,1501.797,565.312,1562.006 M384.628,1494.486c0.939-0.459,1.879-0.848,2.818-1.13
			c0,0,9.077-0.93,5.272-6.639C389.9,1489.154,387.176,1491.744,384.628,1494.486 M399.576,1573.941c0,0-1.444-4.778-8.713-4.778
			c0,0-4.379-4.791-8.278-4.791c0,0-1.443-13.442-8.736-10.547c0,0-0.986-5.309-3.898-4.803c0,0-1.903-5.238-5.32-3.838
			l-3.898-2.389c0,0-0.34,0.635-0.916,1.565c-0.94,5.509-1.468,11.124-1.468,16.892c0,27.837,11.672,53.016,30.343,70.826
			c0.024-0.824,0.247-1.694,0.728-2.413c0,0,1.938-3.849-0.505-7.168c0,0,2.442-3.379,2.442-7.722c0,0-2.442-7.604,3.875-8.582
			c0,0,8.737,0,4.38-15.385c0,0-0.481-4.297,2.937-8.604C402.512,1582.111,405.905,1572.977,399.576,1573.941 M405.448,1477.536
			c-4.38,2.638-8.525,5.639-12.412,8.923c2.23,0.235,11.496,0.895,12.107-4.391L405.448,1477.536z M537.329,1517.135
			c1.843,0.482,3.828-0.07,5.296-0.695c-14.854-28.804-43.554-49.332-77.302-52.593c-7.797,7.604,1.761,10.794,1.761,10.794
			c3.417,2.366,10.639-1.965,10.639-1.965c2.959,3.354-8.232,8.156-8.232,8.156c-6.282,0.46-11.144,3.838-11.144,3.838
			c-2.923-4.32-5.836-0.989-5.836-0.989c-2.396,2.896,3.406,4.367,3.406,4.367c3.875,0.931,2.912,3.343,1.42,4.756
			c-1.42,1.436-7.727,0-7.727,0c-3.405,1.931-0.986,8.628-0.986,8.628h2.924c9.688,2.849,10.205-4.309,10.205-4.309
			c2.877,0,3.887-4.802,3.887-4.802c2.431,2.413,8.255-1.437,8.255-1.437c0.481,1.919,3.37,4.791,3.37,4.791
			c4.38,1.447,5.342,3.367,5.342,3.367c-4.379,0.965-0.481,2.848-0.481,2.848c5.849-2.413,1.444-5.709,1.444-5.709
			c-11.119-5.297-6.305-6.732-6.305-6.732c1.973,3.354,9.746,4.79,9.746,4.79c0.963,6.228,3.875,7.192,3.875,7.192
			c3.381,1.448,4.345-1.424,4.345-1.424c-3.382-0.965-3.899-3.826-3.899-3.826c-0.928-2.896,3.417-0.977,3.417-0.977
			c3.898,5.721,12.154,5.262,12.154,5.262c5.308-0.459,3.874,9.088,3.874,9.088c-5.823,3.859-17.015-2.861-17.015-2.861
			c0.987,3.366-3.358,3.803-3.358,3.803c-4.402-5.227-11.166-2.837-11.166-2.837c1.444-2.39-1.011-6.228-1.011-6.228
			c-3.852-0.965-10.157,0.941-10.157,0.941c-4.862,1.907-14.104,2.413-14.104,2.413c-4.356,0-7.268,8.628-7.268,8.628
			c-9.724,4.297-10.686,12.938-10.686,12.938c0,5.297-0.963,10.547-0.963,10.547c-3.405,5.25,6.283,11.041,6.283,11.041
			c5.859,11.029,13.116,6.238,13.116,6.238c5.848,2.378,18.459-2.4,18.459-2.4c1.468,4.778,8.255,3.354,8.255,3.354
			c2.406,1.424,1.444,6.25,1.444,6.25c-3.369,5.685,2.936,11.041,2.936,11.041c9.688,11.041,3.335,13.891,3.335,13.891
			c-6.752,6.709-2.372,12.501-2.372,12.501c4.826,10.57,4.826,19.599,4.826,19.599c16.511,2.389,22.334-10.052,22.334-10.052
			c5.344,0,5.344-4.757,5.344-4.757c0-5.756,3.417-8.122,3.417-8.122c7.761-5.272,6.317-15.844,6.317-15.844
			c-0.964-6.203,1.443-11.995,1.443-11.995c9.195-10.546,8.737-26.354,8.737-26.354c-3.875,1.918-6.306,0.458-6.306,0.458
			c-8.725-8.651-19.411-27.355-19.411-27.355c10.217,4.32,18.449,24.46,18.449,24.46c5.847-2.884,7.726-8.133,7.726-8.133
			C545.056,1525.692,538.844,1518.677,537.329,1517.135"/>
	</g>
</g>
<g>
	<defs>
		
			<rect id="SVGID_47_" x="422.789" y="62.076" transform="matrix(-0.9138 0.4061 -0.4061 -0.9138 971.4673 36.1867)" width="118.21" height="118.177"/>
	</defs>
	<clipPath id="SVGID_48_">
		<use xlink:href="#SVGID_47_"  overflow="visible"/>
	</clipPath>
	<g clip-path="url(#SVGID_48_)">
		<defs>
			
				<rect id="SVGID_49_" x="422.79" y="62.059" transform="matrix(-0.9138 0.4061 -0.4061 -0.9138 971.4674 36.1876)" width="118.209" height="118.209"/>
		</defs>
		<clipPath id="SVGID_50_">
			<use xlink:href="#SVGID_49_"  overflow="visible"/>
		</clipPath>
		<g clip-path="url(#SVGID_50_)">
			<defs>
				<rect id="SVGID_51_" width="1000" height="2000"/>
			</defs>
			<clipPath id="SVGID_52_">
				<use xlink:href="#SVGID_51_"  overflow="visible"/>
			</clipPath>
			<path clip-path="url(#SVGID_52_)" fill="#0D4972" d="M524.688,72.748c-0.469-0.311-1.034-0.424-1.584-0.308
				c-1.128,0.224-1.912,1.424-1.7,2.486c0.13,0.793,0.388,2.974,0.084,6.016l-0.139,1.416l-42.766-16.447l0.853-1.146
				c2.141-2.876,4.045-4.317,4.131-4.379c0.936-0.709,1.124-2.051,0.421-2.992c-0.659-0.885-2.047-1.152-3.013-0.424
				c-0.252,0.195-24.979,20.166-1.746,58.622l0.689,1.139l-1.257,0.44c-2.264,0.807-4.486,1.698-6.609,2.641
				c-32.934,14.636-36.378,40.752-36.506,41.856c-0.119,0.97,0.445,1.902,1.34,2.236c0.149,0.069,0.324,0.104,0.567,0.146
				c0.955,0.113,2.213-0.885,2.341-1.877c0.064-0.481,0.445-3.062,1.849-6.785l0.386-1.019l47.224,18.171l-0.4,1.019
				c-1.463,3.707-2.891,5.852-3.16,6.245c-0.686,0.972-0.46,2.327,0.498,3.007c0.144,0.1,0.298,0.181,0.478,0.25
				c0.485,0.18,1.111,0.149,1.659-0.095c0.358-0.159,0.647-0.394,0.84-0.663c0.725-1.022,17.563-25.434-2.192-61.934l-0.633-1.173
				l1.274-0.384c3.577-1.069,6.96-2.316,10.07-3.698c32.609-14.491,27.97-40.716,27.92-40.987
				C525.5,73.56,525.168,73.07,524.688,72.748 M492.021,150.243c0.438,5.197,0.171,10.306-0.774,15.109l-0.969,3.245l-46.431-17.953
				l1.468-2.858c2.544-4.27,5.774-8.247,9.63-11.854l1.509-1.669l35.356,13.72L492.021,150.243z M490.405,140.636l0.5,2.017
				l-30.078-11.572l1.727-1.163c5.376-3.635,11.842-6.791,18.75-9.133l0.864-0.285l0.438,0.789
				C486.191,127.711,488.813,134.219,490.405,140.636 M501.629,108.342c-4.778,2.736-10.412,5.041-16.715,6.833l-0.785,0.217
				l-0.432-0.685c-3.497-5.582-6.15-11.067-7.882-16.301l-1.167-3.562l30.331,11.729L501.629,108.342z M519.42,89.269
				c-1.977,4.908-5.178,9.354-9.44,13.155l-1.206,0.798l-35.032-13.309l-0.163-1.397c-0.66-5.798-0.068-11.235,1.761-16.189
				l0.72-2.043l44.028,16.564L519.42,89.269z"/>
		</g>
	</g>
</g>
<g>
	<defs>
		<rect id="SVGID_53_" width="1000" height="2000"/>
	</defs>
	<clipPath id="SVGID_54_">
		<use xlink:href="#SVGID_53_"  overflow="visible"/>
	</clipPath>
	<circle clip-path="url(#SVGID_54_)" fill="#53585F" cx="347.07" cy="1416.58" r="13.561"/>
	<circle clip-path="url(#SVGID_54_)" fill="#53585F" cx="440.817" cy="1283.829" r="13.561"/>
</g>
<g>
	<path fill="#008CCD" d="M753.067,1281.651l-62.05-62.05c16.645-19.136,26.723-44.104,26.723-71.392
		c0-60.067-48.858-108.869-108.87-108.869c-60.068,0-108.87,48.857-108.87,108.869c0,60.011,48.858,108.87,108.87,108.87
		c27.288,0,52.255-10.077,71.391-26.722l62.05,62.049c1.472,1.473,3.453,2.265,5.378,2.265s3.906-0.736,5.379-2.265
		C756.012,1289.464,756.012,1284.595,753.067,1281.651z M515.229,1148.21c0-51.633,42.008-93.584,93.584-93.584
		c51.632,0,93.583,42.008,93.583,93.584s-41.951,93.642-93.583,93.642C557.237,1241.852,515.229,1199.842,515.229,1148.21z"/>
</g>
</svg>
