<?xml version="1.0" encoding="utf-8"?>
<!-- Generator: Adobe Illustrator 16.0.4, SVG Export Plug-In . SVG Version: 6.00 Build 0)  -->
<!DOCTYPE svg PUBLIC "-//W3C//DTD SVG 1.1//EN" "http://www.w3.org/Graphics/SVG/1.1/DTD/svg11.dtd">
<svg version="1.1" id="Layer_1" xmlns="http://www.w3.org/2000/svg" xmlns:xlink="http://www.w3.org/1999/xlink" x="0px" y="0px"
	 width="107.978px" height="180.24px" viewBox="0 0 107.978 180.24" enable-background="new 0 0 107.978 180.24"
	 xml:space="preserve">
<g>
	<g>
		<g>
			<defs>
				<rect id="SVGID_1_" x="58.697" y="63.698" width="40.404" height="26.411"/>
			</defs>
			<clipPath id="SVGID_2_">
				<use xlink:href="#SVGID_1_"  overflow="visible"/>
			</clipPath>
			<g clip-path="url(#SVGID_2_)">
				<defs>
					<polyline id="SVGID_3_" points="99.102,82.16 67.36,63.698 58.697,68.752 95.811,90.109 					"/>
				</defs>
				<clipPath id="SVGID_4_">
					<use xlink:href="#SVGID_3_"  overflow="visible"/>
				</clipPath>
				
					<linearGradient id="SVGID_5_" gradientUnits="userSpaceOnUse" x1="-900.5054" y1="642.5542" x2="-899.5286" y2="642.5542" gradientTransform="matrix(10.7118 20.6286 20.6286 -10.7118 -3537.4277 25521.8008)">
					<stop  offset="0" style="stop-color:#94D5E7"/>
					<stop  offset="0.7438" style="stop-color:#FFFFFF"/>
					<stop  offset="1" style="stop-color:#FFFFFF"/>
				</linearGradient>
				<polygon clip-path="url(#SVGID_4_)" fill="url(#SVGID_5_)" points="90.521,47.174 109.904,84.501 67.281,106.634 47.897,69.309 
									"/>
			</g>
		</g>
	</g>
	<g>
		<g>
			<defs>
				<rect id="SVGID_6_" x="58.754" y="122.185" width="40.348" height="26.092"/>
			</defs>
			<clipPath id="SVGID_7_">
				<use xlink:href="#SVGID_6_"  overflow="visible"/>
			</clipPath>
			<g clip-path="url(#SVGID_7_)">
				<defs>
					<polyline id="SVGID_8_" points="99.102,140.39 67.317,122.185 58.754,127.167 95.7,148.277 					"/>
				</defs>
				<clipPath id="SVGID_9_">
					<use xlink:href="#SVGID_8_"  overflow="visible"/>
				</clipPath>
				
					<linearGradient id="SVGID_10_" gradientUnits="userSpaceOnUse" x1="-900.5127" y1="642.686" x2="-899.5359" y2="642.686" gradientTransform="matrix(10.6191 20.4501 20.4501 -10.6191 -3504.6211 25369.3164)">
					<stop  offset="0" style="stop-color:#94D5E7"/>
					<stop  offset="0.7438" style="stop-color:#FFFFFF"/>
					<stop  offset="1" style="stop-color:#FFFFFF"/>
				</linearGradient>
				<polygon clip-path="url(#SVGID_9_)" fill="url(#SVGID_10_)" points="90.533,105.685 109.772,142.736 67.32,164.777 
					48.084,127.73 				"/>
			</g>
		</g>
	</g>
	<g>
		<g>
			<defs>
				<rect id="SVGID_11_" x="58.697" y="63.698" width="40.404" height="26.411"/>
			</defs>
			<clipPath id="SVGID_12_">
				<use xlink:href="#SVGID_11_"  overflow="visible"/>
			</clipPath>
			<g clip-path="url(#SVGID_12_)">
				<defs>
					<polyline id="SVGID_13_" points="99.102,82.16 67.36,63.698 58.697,68.752 95.811,90.109 					"/>
				</defs>
				<clipPath id="SVGID_14_">
					<use xlink:href="#SVGID_13_"  overflow="visible"/>
				</clipPath>
				
					<linearGradient id="SVGID_15_" gradientUnits="userSpaceOnUse" x1="-900.5054" y1="642.5542" x2="-899.5286" y2="642.5542" gradientTransform="matrix(10.7118 20.6286 20.6286 -10.7118 -3537.4277 25521.8008)">
					<stop  offset="0" style="stop-color:#94D5E7"/>
					<stop  offset="0.7438" style="stop-color:#FFFFFF"/>
					<stop  offset="1" style="stop-color:#FFFFFF"/>
				</linearGradient>
				<polygon clip-path="url(#SVGID_14_)" fill="url(#SVGID_15_)" points="90.521,47.174 109.904,84.501 67.281,106.634 
					47.897,69.309 				"/>
			</g>
		</g>
	</g>
	<g>
		<g>
			<defs>
				<rect id="SVGID_16_" x="58.754" y="122.185" width="40.348" height="26.092"/>
			</defs>
			<clipPath id="SVGID_17_">
				<use xlink:href="#SVGID_16_"  overflow="visible"/>
			</clipPath>
			<g clip-path="url(#SVGID_17_)">
				<defs>
					<polyline id="SVGID_18_" points="99.102,140.39 67.317,122.185 58.754,127.167 95.7,148.277 					"/>
				</defs>
				<clipPath id="SVGID_19_">
					<use xlink:href="#SVGID_18_"  overflow="visible"/>
				</clipPath>
				
					<linearGradient id="SVGID_20_" gradientUnits="userSpaceOnUse" x1="-900.5127" y1="642.686" x2="-899.5359" y2="642.686" gradientTransform="matrix(10.6191 20.4501 20.4501 -10.6191 -3504.6211 25369.3164)">
					<stop  offset="0" style="stop-color:#94D5E7"/>
					<stop  offset="0.7438" style="stop-color:#FFFFFF"/>
					<stop  offset="1" style="stop-color:#FFFFFF"/>
				</linearGradient>
				<polygon clip-path="url(#SVGID_19_)" fill="url(#SVGID_20_)" points="90.533,105.685 109.772,142.736 67.32,164.777 
					48.084,127.73 				"/>
			</g>
		</g>
	</g>
	<g>
		<defs>
			<path id="SVGID_21_" d="M8.875,98.517l36.062,20.83L8.875,140.361V98.517z M52.363,170.863l-39.054-22.602l85.796-50.199v42.328
				l-31.788-18.205l-8.563,4.982L95.7,148.277l-38.645,22.586c-0.413,0.242-1.228,0.501-2.332,0.501S52.779,171.105,52.363,170.863
				 M8.875,40.288L44.938,61.12L8.875,82.131V40.288z M12.805,90.328l86.3-50.496V82.16L67.36,63.698l-8.663,5.054l37.113,21.357
				l-41.309,24.094L12.805,90.328z M13.273,32.158l39.09-22.836c0.416-0.243,1.256-0.501,2.36-0.501s1.944,0.258,2.358,0.501
				l38.693,22.605L54.502,55.973L13.273,32.158z M47.792,1.659L7.12,25.236C3.243,27.5,0,32.592,0,37.08v106.025
				c0,4.488,3.287,9.58,7.164,11.847L47.7,178.529c1.893,1.105,4.414,1.711,6.932,1.711c2.516,0,4.988-0.605,6.881-1.711
				l40.013-23.577c3.873-2.267,6.452-7.358,6.452-11.847V37.08c0-4.488-2.554-9.579-6.43-11.843L61.376,1.659
				C59.483,0.552,57.033,0,54.583,0C52.135,0,49.685,0.552,47.792,1.659"/>
		</defs>
		<clipPath id="SVGID_22_">
			<use xlink:href="#SVGID_21_"  overflow="visible"/>
		</clipPath>
		
			<linearGradient id="SVGID_23_" gradientUnits="userSpaceOnUse" x1="-906.7656" y1="634.0757" x2="-905.7888" y2="634.0757" gradientTransform="matrix(0 89.353 89.353 0 -56602.6445 81079.7891)">
			<stop  offset="0" style="stop-color:#55C8F3"/>
			<stop  offset="0.2851" style="stop-color:#52C6F2"/>
			<stop  offset="0.4853" style="stop-color:#49C0EE"/>
			<stop  offset="0.6594" style="stop-color:#39B5E7"/>
			<stop  offset="0.8188" style="stop-color:#24A5DD"/>
			<stop  offset="0.9666" style="stop-color:#0791D0"/>
			<stop  offset="1" style="stop-color:#008CCD"/>
		</linearGradient>
		<rect clip-path="url(#SVGID_22_)" fill="url(#SVGID_23_)" width="107.978" height="180.24"/>
	</g>
	<g opacity="0.25">
		<g>
			<defs>
				<rect id="SVGID_24_" x="8.875" y="32.158" width="45.626" height="28.961"/>
			</defs>
			<clipPath id="SVGID_25_">
				<use xlink:href="#SVGID_24_"  overflow="visible"/>
			</clipPath>
			<g clip-path="url(#SVGID_25_)">
				<defs>
					<polygon id="SVGID_26_" points="8.875,40.288 44.938,61.12 54.502,55.973 13.276,32.158 					"/>
				</defs>
				<clipPath id="SVGID_27_">
					<use xlink:href="#SVGID_26_"  overflow="visible"/>
				</clipPath>
				
					<linearGradient id="SVGID_28_" gradientUnits="userSpaceOnUse" x1="-902.4287" y1="636.3784" x2="-901.4514" y2="636.3784" gradientTransform="matrix(25.9934 35.069 35.069 -25.9934 1158.0039 48216.8984)">
					<stop  offset="0" style="stop-color:#FFFFFF"/>
					<stop  offset="0.2562" style="stop-color:#FFFFFF"/>
					<stop  offset="0.7165" style="stop-color:#008CB4"/>
					<stop  offset="0.7689" style="stop-color:#0088B0"/>
					<stop  offset="0.8166" style="stop-color:#007DA5"/>
					<stop  offset="0.8624" style="stop-color:#006B93"/>
					<stop  offset="0.9071" style="stop-color:#005179"/>
					<stop  offset="0.9509" style="stop-color:#002F58"/>
					<stop  offset="0.9936" style="stop-color:#000730"/>
					<stop  offset="1" style="stop-color:#000029"/>
				</linearGradient>
				<polygon clip-path="url(#SVGID_27_)" fill="url(#SVGID_28_)" points="38.322,10.33 68.355,50.851 25.053,82.947 -4.981,42.428 
									"/>
			</g>
		</g>
	</g>
</g>
</svg>
