<?xml version="1.0" encoding="utf-8"?>
<!-- Generator: Adobe Illustrator 21.0.0, SVG Export Plug-In . SVG Version: 6.00 Build 0)  -->
<svg version="1.1" id="Layer_1" xmlns="http://www.w3.org/2000/svg" xmlns:xlink="http://www.w3.org/1999/xlink" x="0px" y="0px"
	 viewBox="0 0 1000 1000" style="enable-background:new 0 0 1000 1000;" xml:space="preserve">
<style type="text/css">
	.st0{fill:#374649;}
	.st1{fill:#23A0C8;}
	.st2{fill:#38B1D9;}
	.st3{fill:#1F82A6;}
	.st4{fill:#1C92B5;}
	.st5{fill:#23A3C2;}
	.st6{fill:#35BCDF;}
	.st7{fill:#D3EDEC;}
	.st8{fill:#BEDAD8;}
</style>
<path class="st0" d="M577.1,396.8h87.9v89.8h44.4c20.5,0,41.6-3.7,61-10.2c9.5-3.2,20.3-7.7,29.7-13.4
	c-12.4-16.2-18.7-36.6-20.6-56.8c-2.5-27.4,3-63.1,21.5-84.5l9.2-10.7l11,8.8c27.7,22.3,51,53.4,55.1,88.8
	c33.4-9.8,72.5-7.5,101.9,9.5l12.1,7l-6.3,12.4c-24.9,48.5-76.9,63.6-127.7,60.9c-76.1,189.5-241.7,279.2-442.5,279.2
	c-103.7,0-198.9-38.8-253.1-130.8l-0.9-1.5l-7.9-16.1c-18.3-40.5-24.4-84.9-20.3-129.2l1.2-13.3h75.1v-89.8h87.9V309h175.7v-87.9
	h105.4V396.8"/>
<path class="st1" d="M861.7,430c5.9-45.8-28.4-81.7-49.6-98.8c-24.5,28.3-28.3,102.5,10.1,133.7c-21.4,19-66.6,36.3-112.9,36.3
	H146.3c-4.5,48.3,4,92.8,23.3,130.8l6.4,11.7c4.1,6.9,8.5,13.5,13.3,19.9c23.1,1.5,44.5,2,64,1.6h0c38.4-0.8,69.7-5.4,93.4-13.6
	c3.6-1.1,7.4,0.9,8.5,4.5c1.1,3.4-0.7,7.1-4,8.3c-3.2,1.1-6.4,2.1-9.8,3.1h0c-18.7,5.3-38.7,8.9-64.6,10.5c1.5,0-1.6,0.2-1.6,0.2
	c-0.9,0.1-2,0.2-2.9,0.2c-10.2,0.6-21.2,0.7-32.4,0.7c-12.3,0-24.4-0.2-37.9-0.9l-0.3,0.2c46.9,52.7,120.3,84.4,212.2,84.4
	c194.6,0,359.7-86.3,432.8-279.9c51.9,5.3,101.7-7.9,124.4-52.2C934.9,410,888.5,416.6,861.7,430"/>
<path class="st2" d="M861.7,430c5.9-45.8-28.4-81.7-49.6-98.8c-24.5,28.3-28.3,102.5,10.1,133.7c-21.4,19-66.6,36.3-112.9,36.3
	H179.6c-2.3,73.9,25.1,130.1,73.7,164h0c38.4-0.8,69.7-5.4,93.4-13.6c3.6-1.1,7.4,0.9,8.5,4.5c1.1,3.4-0.7,7.1-4,8.3
	c-3.2,1.1-6.4,2.1-9.8,3.1h0c-18.7,5.3-40.4,9.4-66.3,11c0,0-0.6-0.6-0.6-0.6c66.2,34,162.3,33.9,272.4-8.4
	c123.5-47.4,238.3-137.8,318.5-241.1C864,428.9,862.9,429.5,861.7,430"/>
<path class="st3" d="M147.4,559.9c3.5,25.9,11.1,50.1,22.3,72.1l6.4,11.7c4.1,6.9,8.5,13.5,13.3,19.9c23.2,1.5,44.5,2,64,1.6
	c38.4-0.8,69.7-5.4,93.4-13.6c3.6-1.1,7.4,0.9,8.5,4.5c1.1,3.4-0.7,7.1-4,8.3c-3.2,1.1-6.4,2.1-9.8,3.1h0
	c-18.7,5.3-40.3,9.2-66.2,10.8c-0.9,0.1-2.4,0.1-3.3,0.1c-10.2,0.6-21,0.9-32.3,0.9c-12.3,0-24.8-0.2-38.3-0.9
	c46.9,52.7,120.7,84.5,212.7,84.5c166.6,0,311.5-63.2,395.7-203H147.4"/>
<path class="st4" d="M184.7,559.9c10,45.4,33.9,81.1,68.6,105.3c38.4-0.8,69.7-5.4,93.4-13.6c3.6-1.1,7.4,0.9,8.5,4.5
	c1.1,3.4-0.7,7.1-4,8.3c-3.2,1.1-6.4,2.1-9.8,3.1h0c-18.7,5.3-40.8,9.2-66.6,10.8c66.2,34,162,33.5,272.1-8.8
	c66.6-25.6,130.7-63.7,188.2-109.6H184.7"/>
<path class="st5" d="M222.7,411.5h76.1v76.1h-76.1V411.5z M229.1,417.8h6v63.5h-6V417.8z M240.4,417.8h6.3v63.5h-6.2L240.4,417.8
	L240.4,417.8z M251.9,417.8h6.3v63.5h-6.3V417.8z M263.4,417.8h6.2v63.5h-6.2V417.8z M275,417.8h6.2v63.5H275L275,417.8L275,417.8z
	 M286.5,417.8h6v63.5h-6V417.8z M310.6,323.6h76.2v76.1h-76.2L310.6,323.6L310.6,323.6z M316.9,330h6v63.5h-6V330z M328.2,330h6.2
	v63.5h-6.2L328.2,330L328.2,330z M339.8,330h6.2v63.5h-6.2V330z M351.3,330h6.2v63.5h-6.2V330z M362.8,330h6.3v63.5h-6.3V330z
	 M374.4,330h6v63.5h-6V330z"/>
<path class="st6" d="M310.6,411.5h76.2v76.1h-76.2L310.6,411.5L310.6,411.5z M316.9,417.8h6v63.5h-6V417.8z M328.2,417.8h6.2v63.5
	h-6.2L328.2,417.8L328.2,417.8z M339.8,417.8h6.2v63.5h-6.2V417.8z M351.3,417.8h6.2v63.5h-6.2V417.8z M362.8,417.8h6.3v63.5h-6.3
	V417.8z M374.4,417.8h6v63.5h-6V417.8z"/>
<path class="st5" d="M398.4,411.5h76.1v76.1h-76.1V411.5z M404.8,417.8h6v63.5h-6V417.8z M416.1,417.8h6.2v63.5h-6.2V417.8z
	 M427.6,417.8h6.2v63.5h-6.2V417.8z M439.2,417.8h6.2v63.5h-6.2V417.8z M450.7,417.8h6.3v63.5h-6.3V417.8z M462.2,417.8h6v63.5h-6
	V417.8z"/>
<path class="st6" d="M398.4,323.6h76.1v76.1h-76.1V323.6z M404.8,330h6v63.5h-6V330z M416.1,330h6.2v63.5h-6.2V330z M427.6,330h6.2
	v63.5h-6.2V330z M439.2,330h6.2v63.5h-6.2V330z M450.7,330h6.3v63.5h-6.3V330z M462.2,330h6v63.5h-6V330z M486.3,411.5h76.1v76.1
	h-76.1V411.5z M492.6,417.8h6v63.5h-6V417.8z M503.9,417.8h6.2v63.5h-6.2V417.8z M515.5,417.8h6.2v63.5h-6.2V417.8z M527,417.8h6.3
	v63.5H527V417.8z M538.6,417.8h6.3v63.5h-6.3V417.8z M550.1,417.8h6v63.5h-6V417.8z"/>
<path class="st5" d="M486.3,323.6h76.1v76.1h-76.1V323.6z M492.6,330h6v63.5h-6V330z M503.9,330h6.2v63.5h-6.2V330z M515.5,330h6.2
	v63.5h-6.2V330z M527,330h6.3v63.5H527V330z M538.6,330h6.3v63.5h-6.3V330z M550.1,330h6v63.5h-6V330z"/>
<path class="st6" d="M486.3,235.7h76.1v76.2h-76.1V235.7z M492.6,242.1h6v63.5h-6V242.1L492.6,242.1z M503.9,242.1h6.2v63.5h-6.2
	V242.1L503.9,242.1z M515.5,242.1h6.2v63.5h-6.2V242.1L515.5,242.1z M527,242.1h6.3v63.5H527V242.1L527,242.1z M538.6,242.1h6.3
	v63.5h-6.3V242.1L538.6,242.1z M550.1,242.1h6v63.5h-6V242.1L550.1,242.1z"/>
<path class="st5" d="M574.2,411.5h76.1v76.1h-76.1V411.5z M580.5,417.8h6v63.5h-6L580.5,417.8L580.5,417.8z M591.8,417.8h6.3v63.5
	h-6.2L591.8,417.8L591.8,417.8z M603.3,417.8h6.3v63.5h-6.3V417.8z M614.9,417.8h6.3v63.5h-6.3V417.8z M626.4,417.8h6.2v63.5h-6.2
	V417.8z M637.9,417.8h6v63.5h-6V417.8z"/>
<path class="st7" d="M382,611.1c11.6-0.2,21.1,9.1,21.3,20.7c0.2,11.6-9.1,21.1-20.7,21.3c-0.2,0-0.4,0-0.6,0
	c-11.6-0.2-20.9-9.7-20.7-21.3C361.4,620.4,370.6,611.2,382,611.1"/>
<path class="st0" d="M382,617c1.9,0,3.8,0.4,5.4,1c-2.9,1.7-3.9,5.5-2.2,8.4c1.1,1.9,3.1,3.1,5.3,3.1c2.3,0,4.3-1.3,5.4-3.2
	c3.2,7.7-0.5,16.5-8.1,19.7c-7.7,3.2-16.5-0.5-19.7-8.1c-3.2-7.7,0.5-16.5,8.1-19.7C378,617.4,380,617,382,617 M10.4,567.5h977.2
	c-21.3-5.4-67.3-12.7-59.7-40.6c-38.7,44.8-132,31.4-155.5,9.3c-26.2,38-178.9,23.6-189.5-6.1c-32.9,38.6-134.7,38.6-167.6,0
	c-10.7,29.6-163.3,44.1-189.5,6.1c-23.5,22.1-116.8,35.4-155.5-9.3C77.7,554.8,31.7,562.1,10.4,567.5"/>
<path class="st8" d="M437.8,762.4c-52-24.7-80.6-58.2-96.5-94.9c-19.3,5.5-42.6,9-69.5,10.6c-10.2,0.6-20.9,0.9-32.1,0.9
	c-12.9,0-26.6-0.4-40.9-1.1c47.7,47.7,106.4,84.4,215.1,85.1C421.9,762.9,429.9,762.7,437.8,762.4"/>
<path class="st7" d="M360.7,701.4c-7.2-9.8-14.2-22.1-19.3-33.8c-19.3,5.5-42.6,9-69.6,10.6C290.3,688.2,316.9,697.5,360.7,701.4"/>
</svg>
