<?xml version="1.0" encoding="utf-8"?>
<!-- Generator: Adobe Illustrator 16.0.0, SVG Export Plug-In . SVG Version: 6.00 Build 0)  -->
<!DOCTYPE svg PUBLIC "-//W3C//DTD SVG 1.1//EN" "http://www.w3.org/Graphics/SVG/1.1/DTD/svg11.dtd">
<svg version="1.1" id="Layer_1" xmlns="http://www.w3.org/2000/svg" xmlns:xlink="http://www.w3.org/1999/xlink" x="0px" y="0px"
	 width="127.299px" height="144.714px" viewBox="0 0 127.299 144.714" enable-background="new 0 0 127.299 144.714"
	 xml:space="preserve">
<g>
	<g>
		<g>
			
				<linearGradient id="SVGID_1_" gradientUnits="userSpaceOnUse" x1="45.4688" y1="125.0576" x2="22.0474" y2="84.4906" gradientTransform="matrix(0.7942 0.6076 -0.6076 0.7942 58.4389 -26.9659)">
				<stop  offset="0" style="stop-color:#3C88A6"/>
				<stop  offset="1" style="stop-color:#57BEEB"/>
			</linearGradient>
			<path fill="url(#SVGID_1_)" d="M0.258,90.679c-0.664,2.169-0.022,4.528,1.652,6.059c1.668,1.531,4.075,1.972,6.185,1.121
				c6.236-2.521,14.413-4.461,22.309-2.241c3.762-16.2,8.725-29.391,13.478-39.573C32.637,55.821,9.795,59.483,0.258,90.679z"/>
		</g>
		<g>
			
				<linearGradient id="SVGID_2_" gradientUnits="userSpaceOnUse" x1="114.7588" y1="129.1553" x2="87.3682" y2="81.7133" gradientTransform="matrix(0.7942 0.6076 -0.6076 0.7942 58.4389 -26.9659)">
				<stop  offset="0" style="stop-color:#3C88A6"/>
				<stop  offset="1" style="stop-color:#57BEEB"/>
			</linearGradient>
			<path fill="url(#SVGID_2_)" d="M91.841,92.8c-8.578,7.232-19.997,15.463-34.632,23.309c4.147,7.025,4.399,15.384,3.611,22.028
				c-0.278,2.257,0.785,4.458,2.695,5.671c1.922,1.209,4.362,1.209,6.282-0.001C97.272,126.536,94.96,103.652,91.841,92.8z"/>
		</g>
		
			<linearGradient id="SVGID_3_" gradientUnits="userSpaceOnUse" x1="74.3096" y1="135.6924" x2="64.2759" y2="118.3135" gradientTransform="matrix(0.7942 0.6076 -0.6076 0.7942 58.4389 -26.9659)">
			<stop  offset="0" style="stop-color:#3C88A6"/>
			<stop  offset="1" style="stop-color:#57BEEB"/>
		</linearGradient>
		<polygon fill="url(#SVGID_3_)" points="31.397,105.25 47.963,117.925 41.201,126.764 24.635,114.089 		"/>
	</g>
	
		<linearGradient id="SVGID_4_" gradientUnits="userSpaceOnUse" x1="100.3018" y1="109.6904" x2="37.1938" y2="0.3843" gradientTransform="matrix(0.7942 0.6076 -0.6076 0.7942 58.4389 -26.9659)">
		<stop  offset="0" style="stop-color:#3C88A6"/>
		<stop  offset="1" style="stop-color:#57BEEB"/>
	</linearGradient>
	<path fill="url(#SVGID_4_)" d="M110.511,71.713c20.737-26.545,17.166-52.145,15.355-65.243c-0.576-4.091-4.363-6.994-8.521-6.392
		c-12.914,1.894-37.944,5.574-58.069,32.43c0,0-20.168,23.598-29.298,70.218l10.039,7.681l0.35,0.268l10.043,7.685
		C93.006,97.35,110.511,71.713,110.511,71.713z M103.183,28.585c0.185,0.142,0.352,0.299,0.498,0.468
		c0.074,0.085,0.143,0.172,0.206,0.263c0.129,0.182,0.237,0.373,0.327,0.573c0.443,0.996,0.395,2.181-0.204,3.153
		c-0.061,0.097-0.126,0.192-0.196,0.285c-0.283,0.371-0.629,0.666-1.011,0.883c-0.287,0.164-0.594,0.282-0.91,0.355
		c-0.951,0.22-1.988,0.03-2.821-0.607c-0.186-0.142-0.352-0.299-0.499-0.468c-0.074-0.084-0.143-0.172-0.207-0.263
		c-0.127-0.181-0.236-0.373-0.325-0.572c-0.489-1.096-0.38-2.42,0.399-3.439c0.496-0.648,1.183-1.067,1.922-1.238
		c0.211-0.048,0.426-0.078,0.643-0.085c0.434-0.016,0.871,0.05,1.287,0.203C102.604,28.21,102.904,28.373,103.183,28.585z
		 M90.747,41.73c0.434,0.025,0.865,0.134,1.27,0.33c0.203,0.098,0.398,0.217,0.583,0.358c0.648,0.496,1.066,1.182,1.238,1.921
		c0.049,0.211,0.077,0.427,0.086,0.644c0.02,0.542-0.089,1.09-0.334,1.595c-0.097,0.202-0.217,0.397-0.358,0.583
		c-0.213,0.278-0.46,0.513-0.731,0.706c-1.178,0.832-2.807,0.846-4.011-0.074c-0.371-0.284-0.666-0.629-0.884-1.011
		c-0.271-0.478-0.42-1.012-0.44-1.554c-0.028-0.758,0.196-1.53,0.692-2.178C88.566,42.125,89.663,41.667,90.747,41.73z
		 M77.906,61.628c-1.48-1.133-1.765-3.262-0.631-4.743c1.133-1.482,3.261-1.765,4.742-0.631s1.764,3.26,0.631,4.742
		C81.516,62.477,79.388,62.76,77.906,61.628z"/>
	<g>
		
			<linearGradient id="SVGID_5_" gradientUnits="userSpaceOnUse" x1="78.3604" y1="156.9355" x2="63.0684" y2="130.449" gradientTransform="matrix(0.7942 0.6076 -0.6076 0.7942 58.4389 -26.9659)">
			<stop  offset="0" style="stop-color:#3C88A6"/>
			<stop  offset="1" style="stop-color:#57BEEB"/>
		</linearGradient>
		<path fill="url(#SVGID_5_)" d="M40.827,126.54l-3.973-3.037c-0.006,0.03-1.083,5.664-4.611,7.603c0,0,0.635-2.679,0.475-3.456
			c-0.027-0.133-0.085-0.27-0.178-0.4c-0.64-0.914-2.731,3.685-8.627,4.951c-0.323-6.022,3.569-9.243,2.518-9.625
			c-0.151-0.055-0.298-0.071-0.434-0.064c-0.79,0.048-3.212,1.362-3.212,1.362c0.947-3.904,6.082-6.419,6.129-6.441l-3.968-3.033
			c0,0-8.416,4.698-10.315,12.543c0,0,2.893-2.289,4.477-2.387c0.271-0.014,0.56,0.023,0.869,0.135
			c2.097,0.761-5.686,7.206-5.042,19.249c11.791-2.533,15.974-11.732,17.256-9.907c0.189,0.268,0.3,0.537,0.358,0.803
			c0.32,1.552-1.132,4.945-1.132,4.945C38.49,135.892,40.827,126.54,40.827,126.54z"/>
	</g>
</g>
</svg>
